<svg width="781" height="519" viewBox="0 0 781 519" fill="currentColor" xmlns="http://www.w3.org/2000/svg">
<path d="M644.93 360.761C664.938 359.582 719.283 337.762 776.596 259.92H2.39648C23.3853 347.062 80.961 437.564 120.138 486.412C123.015 491.808 143.825 505.831 238.315 505.831C356.428 505.831 286.722 360.761 333.192 360.761C379.663 360.761 400.961 403.22 420.324 472.217C439.687 541.213 505.52 509.369 582.97 505.831C644.93 503 650.094 407.938 644.93 360.761Z" stroke="#626262" stroke-width="3.77559" stroke-dasharray="12.59 12.59"/>
<path d="M776.596 258.195C719.283 180.353 664.938 158.534 644.93 157.354C650.094 110.177 644.93 15.1153 582.97 12.2847C505.52 8.7464 439.687 -23.0981 420.324 45.8984C400.961 114.895 379.663 157.354 333.192 157.354C286.722 157.354 356.428 12.2847 238.315 12.2847C143.825 12.2847 123.015 26.307 120.138 31.7028C80.961 80.5512 23.3853 171.053 2.39648 258.195" stroke="#626262" stroke-width="3.77559" stroke-dasharray="12.59 12.59"/>
</svg>
