<svg width="781" height="519" viewBox="0 0 781 519" fill="currentColor" xmlns="http://www.w3.org/2000/svg">
<path d="M471.564 513.98C475.7 514.321 480.035 514.407 484.557 514.296L484.603 516.183L484.649 518.07C480.023 518.184 475.551 518.097 471.255 517.743L471.41 515.861L471.564 513.98ZM510.881 513.998L511.11 515.872C506.615 516.424 502.217 516.909 497.934 517.286L497.769 515.405L497.603 513.524C501.831 513.153 506.183 512.673 510.65 512.124L510.881 513.998ZM447.066 507.315C450.707 509.317 454.65 510.824 458.882 511.919L458.409 513.746L457.936 515.574C453.44 514.411 449.197 512.796 445.247 510.624L446.157 508.97L447.066 507.315ZM537.033 510.474L537.288 512.344C532.852 512.949 528.509 513.558 524.219 514.147L523.705 510.407C527.972 509.821 532.349 509.207 536.777 508.603L537.033 510.474ZM563.418 509.173C559.012 509.61 554.652 510.107 550.348 510.637L549.887 506.889C554.214 506.356 558.603 505.856 563.045 505.415L563.418 509.173ZM589.204 505.212L589.495 507.077C587.415 507.401 585.269 507.617 583.058 507.718C580.865 507.818 578.68 507.941 576.506 508.084L576.383 506.2L576.259 504.316C578.457 504.172 580.666 504.047 582.885 503.945C584.963 503.85 586.973 503.649 588.914 503.347L589.204 505.212ZM244.684 505.685L244.772 507.57C242.682 507.669 240.531 507.72 238.316 507.72C236.232 507.72 234.182 507.713 232.168 507.699L232.181 505.812L232.192 503.924C234.198 503.937 236.24 503.943 238.316 503.943C240.474 503.943 242.566 503.895 244.594 503.799L244.684 505.685ZM207.902 503.396C211.782 503.545 215.83 503.666 220.052 503.756L219.972 507.531C215.729 507.441 211.659 507.319 207.757 507.169L207.829 505.282L207.902 503.396ZM183.655 501.947C187.462 502.267 191.493 502.556 195.759 502.808L195.536 506.577C191.241 506.324 187.179 506.033 183.339 505.71L183.497 503.829L183.655 501.947ZM269.182 501.527L269.765 503.322C265.944 504.562 261.808 505.559 257.335 506.287L257.031 504.424L256.729 502.561C261.027 501.861 264.974 500.908 268.599 499.731L269.182 501.527ZM159.62 499.114C163.272 499.696 167.255 500.245 171.598 500.749L171.162 504.499C166.771 503.989 162.734 503.433 159.025 502.843L159.322 500.979L159.62 499.114ZM613.137 497.05C609.723 499.653 606.002 501.847 601.954 503.56L601.218 501.821L600.482 500.082C604.226 498.498 607.674 496.468 610.848 494.048L613.137 497.05ZM429.42 489.588C431.694 493.525 434.236 496.872 437.023 499.708L435.678 501.031L434.331 502.354C431.305 499.275 428.572 495.67 426.15 491.477L429.42 489.588ZM136.199 493.733C139.38 494.796 143.196 495.86 147.76 496.877L147.349 498.72L146.938 500.562C142.268 499.52 138.324 498.424 135.003 497.314L135.601 495.524L136.199 493.733ZM291.981 490.707C288.91 493.517 285.435 496.047 281.505 498.244L279.663 494.949C283.34 492.894 286.578 490.534 289.433 487.922L291.981 490.707ZM119.642 482.76L121.612 485.232L121.723 485.37L121.806 485.525C122.177 486.221 123.194 487.445 125.538 488.952L124.518 490.54L123.496 492.128C120.96 490.497 119.387 488.907 118.569 487.473C117.288 485.873 115.986 484.23 114.667 482.544L117.642 480.218C118.313 481.076 118.98 481.924 119.642 482.76ZM629.803 477.636C627.599 481.398 625.152 484.919 622.44 488.132L620.998 486.914L619.555 485.696C622.112 482.667 624.437 479.326 626.545 475.728L629.803 477.636ZM306.516 469.682C304.832 473.631 302.818 477.414 300.401 480.958L297.282 478.831C299.544 475.514 301.444 471.952 303.043 468.201L306.516 469.682ZM420.395 465.569C420.98 467.591 421.562 469.638 422.143 471.708C422.749 473.868 423.401 475.923 424.096 477.878L422.316 478.511L420.538 479.143C419.813 477.102 419.136 474.965 418.508 472.728C417.93 470.667 417.35 468.631 416.768 466.619L418.581 466.095L420.395 465.569ZM102.285 459.695C104.849 463.267 107.378 466.719 109.861 470.04L108.349 471.17L106.837 472.301C104.339 468.96 101.795 465.488 99.2178 461.896L100.751 460.796L102.285 459.695ZM638.002 453.737L639.806 454.295C638.538 458.399 637.102 462.392 635.483 466.225L633.744 465.49L632.006 464.755C633.571 461.051 634.963 457.178 636.198 453.181L638.002 453.737ZM313.124 445.172C312.48 449.374 311.657 453.537 310.594 457.6L308.768 457.122L306.941 456.644C307.966 452.728 308.764 448.696 309.392 444.6L313.124 445.172ZM412.778 441.191C414.117 445.122 415.432 449.173 416.729 453.34L414.926 453.901L413.124 454.462C411.836 450.323 410.531 446.304 409.204 442.409L410.991 441.801L412.778 441.191ZM87.7246 438.613C90.1351 442.238 92.5342 445.777 94.9141 449.224L93.3613 450.297L91.8076 451.369C89.4153 447.905 87.0028 444.347 84.5801 440.704L86.1523 439.659L87.7246 438.613ZM643.526 429.354L645.392 429.646C644.737 433.822 643.958 437.973 643.043 442.059L641.2 441.646L639.358 441.233C640.255 437.234 641.018 433.164 641.661 429.062L643.526 429.354ZM313.444 420.018L315.33 420.099C315.154 424.228 314.921 428.427 314.571 432.636L312.69 432.479L310.809 432.323C311.153 428.181 311.384 424.035 311.559 419.938L313.444 420.018ZM403.611 417.265C405.268 421.063 406.876 425.024 408.444 429.142L406.68 429.813L404.916 430.485C403.367 426.417 401.782 422.511 400.151 418.774L401.881 418.02L403.611 417.265ZM73.8848 417.018C76.1571 420.7 78.4346 424.319 80.709 427.868L79.1191 428.887L77.5303 429.905C75.2445 426.338 72.9556 422.7 70.6719 419L73.8848 417.018ZM646.065 404.471L647.951 404.569C647.734 408.718 647.42 412.921 646.994 417.135L645.116 416.945L643.238 416.755C643.657 412.605 643.967 408.464 644.181 404.372L646.065 404.471ZM60.791 394.965C62.9274 398.709 65.0806 402.406 67.2441 406.05L63.998 407.978C61.8236 404.316 59.6592 400.6 57.5117 396.836L60.791 394.965ZM316.235 395.155C316.021 399.1 315.887 403.262 315.756 407.588L313.868 407.531L311.981 407.474C312.113 403.151 312.249 398.945 312.466 394.95L316.235 395.155ZM391.748 394.45C393.963 397.958 396.085 401.701 398.126 405.666L396.447 406.53L394.77 407.395C392.773 403.516 390.705 399.87 388.556 396.467L390.152 395.459L391.748 394.45ZM648.146 379.391C648.292 383.447 648.357 387.663 648.324 391.986L644.549 391.957C644.581 387.69 644.517 383.53 644.373 379.526L646.26 379.458L648.146 379.391ZM375.239 374.494C378.4 377.291 381.386 380.439 384.22 383.916L382.757 385.108L381.294 386.302C378.576 382.967 375.729 379.97 372.737 377.322L375.239 374.494ZM48.4883 372.471C50.48 376.277 52.4987 380.047 54.5391 383.776L51.2266 385.589C49.1753 381.84 47.1453 378.049 45.1426 374.222L46.8154 373.346L48.4883 372.471ZM320.352 371.341C318.965 374.458 318.016 378.343 317.356 382.882L313.62 382.339C314.304 377.631 315.318 373.367 316.902 369.806L320.352 371.341ZM352.586 361.63C356.833 362.925 360.839 364.667 364.628 366.837L363.69 368.475L362.752 370.113C359.206 368.083 355.459 366.453 351.485 365.241L352.035 363.436L352.586 361.63ZM650.918 359.961L651.28 361.813C649.757 362.112 648.33 362.33 647.008 362.477C647.15 363.882 647.284 365.326 647.406 366.805L645.524 366.96L643.644 367.116C643.468 364.989 643.27 362.935 643.055 360.968L642.839 358.994L644.82 358.878C646.464 358.781 648.381 358.534 650.555 358.108L650.918 359.961ZM333.193 358.874C335.425 358.874 337.605 358.97 339.732 359.16L339.564 361.04L339.396 362.921C337.385 362.741 335.317 362.649 333.193 362.649C331.057 362.649 329.252 362.984 327.714 363.583L327.029 361.824L326.344 360.065C328.38 359.273 330.659 358.874 333.193 358.874ZM37.0479 349.533C38.8813 353.403 40.7528 357.246 42.6553 361.06L39.2764 362.745C37.3628 358.91 35.4804 355.043 33.6357 351.15L37.0479 349.533ZM673.78 352.073L674.577 353.785C670.528 355.671 666.732 357.216 663.223 358.459L662.592 356.68L661.962 354.9C665.351 353.7 669.037 352.2 672.983 350.362L673.78 352.073ZM694.939 340.287L695.962 341.873C692.354 344.199 688.86 346.296 685.495 348.18L684.573 346.532L683.65 344.886C686.946 343.041 690.373 340.984 693.916 338.7L694.939 340.287ZM26.5811 326.146C28.2365 330.081 29.9394 333.999 31.6846 337.896L29.9619 338.668L28.2383 339.439C26.4817 335.517 24.7676 331.572 23.1006 327.609L24.8408 326.878L26.5811 326.146ZM714.59 326.076L715.771 327.549C712.469 330.196 709.227 332.663 706.057 334.961L703.842 331.904C706.962 329.643 710.154 327.212 713.409 324.603L714.59 326.076ZM734.112 311.49C731.077 314.376 728.075 317.114 725.114 319.709L722.626 316.869C725.548 314.308 728.511 311.605 731.511 308.754L734.112 311.49ZM17.2363 302.3C18.6863 306.302 20.1948 310.298 21.7568 314.28L19.999 314.969L18.2422 315.658C16.6685 311.646 15.1471 307.621 13.6855 303.586L15.4609 302.943L17.2363 302.3ZM749.768 292.772L751.163 294.043C748.351 297.13 745.558 300.089 742.789 302.925L741.438 301.606L740.088 300.287C742.826 297.483 745.589 294.556 748.372 291.501L749.768 292.772ZM9.21582 277.995C10.4226 282.065 11.7008 286.137 13.0449 290.205L11.2529 290.797L9.45996 291.39C8.1041 287.286 6.81395 283.177 5.5957 279.068L7.40625 278.531L9.21582 277.995ZM765.513 274.344L766.984 275.525C764.38 278.769 761.785 281.902 759.203 284.925L756.332 282.474C758.888 279.48 761.459 276.377 764.04 273.162L765.513 274.344ZM3.95801 251.968L5.78516 252.443C5.30023 254.308 4.83288 256.172 4.38086 258.033H8.64062V261.809H4.80469C5.1242 263.096 5.44994 264.385 5.78516 265.674L3.95801 266.149L2.13086 266.624C1.58778 264.536 1.06478 262.449 0.5625 260.363L0 258.033H1.7207L0.5625 257.754C1.0648 255.668 1.58776 253.581 2.13086 251.493L3.95801 251.968ZM774.458 252.177C775.676 253.785 776.896 255.419 778.117 257.077L776.819 258.033H780.332L778.117 261.04C776.896 262.699 775.676 264.332 774.458 265.94L771.448 263.661C771.913 263.048 772.377 262.429 772.842 261.809H770.354V258.033H774.126C773.232 256.828 772.341 255.634 771.448 254.456L774.458 252.177ZM33.6152 261.809H21.1279V258.033H33.6152V261.809ZM58.5898 261.809H46.1025V258.033H58.5898V261.809ZM83.5635 261.809H71.0762V258.033H83.5635V261.809ZM108.538 261.809H96.0508V258.033H108.538V261.809ZM133.512 261.809H121.024V258.033H133.512V261.809ZM158.486 261.809H145.999V258.033H158.486V261.809ZM183.46 261.809H170.974V258.033H183.46V261.809ZM208.435 261.809H195.947V258.033H208.435V261.809ZM233.408 261.809H220.922V258.033H233.408V261.809ZM258.383 261.809H245.896V258.033H258.383V261.809ZM283.357 261.809H270.87V258.033H283.357V261.809ZM308.331 261.809H295.844V258.033H308.331V261.809ZM333.306 261.809H320.818V258.033H333.306V261.809ZM358.279 261.809H345.793V258.033H358.279V261.809ZM383.254 261.809H370.767V258.033H383.254V261.809ZM408.228 261.809H395.741V258.033H408.228V261.809ZM433.202 261.809H420.715V258.033H433.202V261.809ZM458.177 261.809H445.689V258.033H458.177V261.809ZM483.15 261.809H470.663V258.033H483.15V261.809ZM508.125 261.809H495.638V258.033H508.125V261.809ZM533.099 261.809H520.611V258.033H533.099V261.809ZM558.073 261.809H545.586V258.033H558.073V261.809ZM583.048 261.809H570.561V258.033H583.048V261.809ZM608.021 261.809H595.534V258.033H608.021V261.809ZM632.996 261.809H620.509V258.033H632.996V261.809ZM657.97 261.809H645.483V258.033H657.97V261.809ZM682.944 261.809H670.457V258.033H682.944V261.809ZM707.919 261.809H695.432V258.033H707.919V261.809ZM732.893 261.809H720.405V258.033H732.893V261.809ZM757.867 261.809H745.38V258.033H757.867V261.809ZM759.203 233.192C761.785 236.216 764.38 239.348 766.984 242.592L765.513 243.773L764.04 244.955C761.459 241.741 758.889 238.637 756.332 235.644L759.203 233.192ZM11.2529 227.32L13.0449 227.912C11.7008 231.98 10.4226 236.052 9.21582 240.122L7.40625 239.586L5.5957 239.049C6.81397 234.94 8.10408 230.831 9.45996 226.728L11.2529 227.32ZM742.789 215.192C745.558 218.028 748.351 220.987 751.163 224.073L748.372 226.616C745.589 223.561 742.826 220.634 740.088 217.83L741.438 216.511L742.789 215.192ZM19.999 203.148L21.7568 203.837C20.1948 207.819 18.6863 211.815 17.2363 215.817L15.4609 215.174L13.6855 214.531C15.1472 210.496 16.6685 206.471 18.2422 202.459L19.999 203.148ZM725.114 198.408C728.075 201.003 731.077 203.741 734.112 206.627L731.511 209.363C728.512 206.512 725.548 203.809 722.626 201.248L725.114 198.408ZM706.057 183.156C709.227 185.454 712.469 187.921 715.771 190.568L714.59 192.041L713.409 193.515C710.154 190.905 706.962 188.474 703.842 186.213L706.057 183.156ZM29.9619 179.449L31.6846 180.221C29.9393 184.118 28.2365 188.037 26.5811 191.972L24.8408 191.239L23.1006 190.508C24.7676 186.545 26.4817 182.6 28.2383 178.678L29.9619 179.449ZM685.495 169.938C688.86 171.821 692.354 173.918 695.962 176.244L694.939 177.83L693.917 179.417C690.374 177.133 686.946 175.076 683.65 173.231L684.573 171.585L685.495 169.938ZM42.6553 157.058C40.7527 160.871 38.8814 164.715 37.0479 168.584L33.6357 166.967C35.4805 163.074 37.3628 159.207 39.2764 155.372L42.6553 157.058ZM663.223 159.658C666.731 160.901 670.528 162.446 674.577 164.332L673.78 166.044L672.983 167.755C669.037 165.917 665.351 164.417 661.962 163.217L662.592 161.438L663.223 159.658ZM645.524 151.157L647.406 151.312C647.284 152.791 647.15 154.235 647.008 155.641C648.33 155.787 649.757 156.005 651.28 156.304L650.918 158.156L650.555 160.009C648.381 159.583 646.464 159.336 644.82 159.239L642.839 159.123L643.055 157.149C643.27 155.182 643.468 153.129 643.644 151.001L645.524 151.157ZM327.714 154.534C329.252 155.133 331.057 155.468 333.193 155.468C335.317 155.468 337.385 155.376 339.396 155.196L339.564 157.077L339.732 158.957C337.605 159.147 335.425 159.243 333.193 159.243C330.659 159.243 328.38 158.844 326.344 158.052L327.029 156.293L327.714 154.534ZM363.69 149.643L364.628 151.28C360.839 153.45 356.833 155.192 352.586 156.487L352.035 154.682L351.485 152.876C355.459 151.664 359.206 150.035 362.752 148.004L363.69 149.643ZM317.356 135.235C318.016 139.774 318.965 143.659 320.352 146.776L316.902 148.312C315.318 144.75 314.304 140.486 313.62 135.778L317.356 135.235ZM54.5391 134.341C52.4987 138.07 50.48 141.84 48.4883 145.646L45.1426 143.896C47.1454 140.069 49.1752 136.278 51.2266 132.528L54.5391 134.341ZM382.757 133.009L384.22 134.201C381.386 137.678 378.4 140.826 375.239 143.623L372.737 140.795C375.729 138.147 378.576 135.151 381.294 131.815L382.757 133.009ZM648.324 126.131C648.357 130.454 648.292 134.67 648.146 138.727L646.26 138.659L644.373 138.591C644.517 134.588 644.581 130.426 644.549 126.159L646.437 126.146L648.324 126.131ZM396.447 111.587L398.126 112.451C396.085 116.416 393.964 120.159 391.748 123.667L390.152 122.658L388.556 121.65C390.705 118.247 392.773 114.601 394.77 110.723L396.447 111.587ZM315.756 110.529C315.887 114.855 316.021 119.018 316.235 122.962L312.466 123.167C312.249 119.172 312.113 114.967 311.981 110.644L313.868 110.586L315.756 110.529ZM67.2441 112.067C65.0806 115.711 62.9275 119.408 60.791 123.152L57.5117 121.281C59.6592 117.517 61.8235 113.802 63.998 110.14L67.2441 112.067ZM646.994 100.982C647.42 105.197 647.734 109.399 647.951 113.548L646.065 113.646L644.181 113.745C643.967 109.653 643.657 105.512 643.238 101.362L645.116 101.172L646.994 100.982ZM79.1191 89.2305L80.709 90.249C78.4346 93.7985 76.1572 97.4175 73.8848 101.1L70.6719 99.1172C72.9556 95.4167 75.2445 91.7791 77.5303 88.2119L79.1191 89.2305ZM406.68 88.3037L408.444 88.9756C406.876 93.0931 405.268 97.0544 403.611 100.853L401.881 100.098L400.151 99.3428C401.782 95.6057 403.367 91.7001 404.916 87.6318L406.68 88.3037ZM314.571 85.4814C314.921 89.6905 315.154 93.8897 315.33 98.0186L313.444 98.0996L311.559 98.1797C311.384 94.0823 311.153 89.9364 310.809 85.7939L312.69 85.6377L314.571 85.4814ZM643.043 76.0586C643.958 80.1441 644.737 84.2952 645.392 88.4707L643.526 88.7627L641.661 89.0557C641.018 84.9536 640.254 80.8831 639.358 76.8838L641.2 76.4707L643.043 76.0586ZM93.3613 67.8203L94.9141 68.8936C92.5341 72.3401 90.1352 75.8796 87.7246 79.5039L86.1523 78.458L84.5801 77.4131C87.0029 73.7703 89.4152 70.2127 91.8076 66.748L93.3613 67.8203ZM414.926 64.2158L416.729 64.7773C415.432 68.9442 414.117 72.9955 412.778 76.9258L410.991 76.3164L409.204 75.708C410.531 71.813 411.836 67.7941 413.124 63.6553L414.926 64.2158ZM310.594 60.5176C311.657 64.5806 312.48 68.7435 313.124 72.9453L309.392 73.5176C308.764 69.421 307.966 65.3887 306.941 61.4736L308.768 60.9951L310.594 60.5176ZM635.483 51.8926C637.102 55.7251 638.538 59.7178 639.806 63.8223L638.002 64.3799L636.198 64.9365C634.963 60.9394 633.571 57.0666 632.006 53.3623L633.744 52.627L635.483 51.8926ZM108.349 46.9473L109.861 48.0771C107.378 51.3984 104.849 54.8499 102.285 58.4219L100.751 57.3213L99.2178 56.2207C101.795 52.6291 104.339 49.1576 106.837 45.8164L108.349 46.9473ZM422.316 39.6064L424.096 40.2393C423.401 42.1945 422.749 44.2495 422.143 46.4092C421.562 48.4788 420.98 50.5256 420.395 52.5479L418.581 52.0225L416.768 51.498C417.35 49.4863 417.93 47.45 418.508 45.3896C419.136 43.1524 419.813 41.0152 420.538 38.9746L422.316 39.6064ZM300.401 37.1592C302.818 40.703 304.832 44.4859 306.516 48.4355L303.043 49.916C301.444 46.1657 299.544 42.6034 297.282 39.2861L300.401 37.1592ZM622.44 29.9854C625.152 33.1977 627.599 36.7188 629.803 40.4814L626.545 42.3896C624.437 38.7914 622.112 35.4503 619.555 32.4209L620.998 31.2031L622.44 29.9854ZM124.518 27.5771L125.538 29.165C123.194 30.6725 122.177 31.896 121.806 32.5918L121.723 32.7471L121.612 32.8848L119.642 35.3574C118.98 36.1932 118.313 37.041 117.642 37.8994L114.667 35.5732C115.986 33.8875 117.288 32.2438 118.569 30.6445C119.387 29.2106 120.96 27.6203 123.496 25.9893L124.518 27.5771ZM281.505 19.873C285.435 22.0698 288.91 24.5999 291.981 27.4102L289.433 30.1953C286.578 27.5829 283.34 25.2232 279.663 23.168L281.505 19.873ZM435.678 17.0859L437.023 18.4092C434.236 21.245 431.694 24.5918 429.42 28.5293L426.15 26.6406C428.572 22.4473 431.305 18.8421 434.331 15.7627L435.678 17.0859ZM147.349 19.3975L147.76 21.2402C143.196 22.2576 139.38 23.3215 136.199 24.3838L135.601 22.5928L135.003 20.8027C138.324 19.6934 142.268 18.5969 146.938 17.5557L147.349 19.3975ZM601.954 14.5576C606.002 16.2701 609.723 18.4643 613.137 21.0674L610.848 24.0693C607.674 21.6496 604.226 19.619 600.482 18.0352L601.218 16.2959L601.954 14.5576ZM171.598 17.3682C167.255 17.8725 163.272 18.4213 159.62 19.0029L159.322 17.1387L159.025 15.2744C162.734 14.6837 166.771 14.1281 171.162 13.6182L171.598 17.3682ZM257.335 11.8301C261.808 12.5585 265.944 13.5547 269.765 14.7949L269.182 16.5898L268.599 18.3857C264.974 17.2093 261.027 16.2566 256.729 15.5566L257.031 13.6934L257.335 11.8301ZM195.759 15.3096C191.493 15.5612 187.462 15.8497 183.655 16.1699L183.497 14.2881L183.339 12.4072C187.179 12.0842 191.241 11.7934 195.536 11.54L195.759 15.3096ZM576.506 10.0332C578.68 10.1761 580.865 10.2993 583.058 10.3994C585.269 10.5005 587.415 10.716 589.495 11.04L589.204 12.9053L588.914 14.7705C586.973 14.4681 584.963 14.2668 582.885 14.1719C580.666 14.0705 578.457 13.9452 576.259 13.8008L576.383 11.917L576.506 10.0332ZM220.052 14.3613C215.83 14.4513 211.782 14.5724 207.902 14.7217L207.829 12.835L207.757 10.9482C211.659 10.7981 215.729 10.6764 219.972 10.5859L220.052 14.3613ZM238.316 10.3975C240.531 10.3975 242.682 10.4479 244.772 10.5469L244.684 12.4326L244.594 14.3184C242.566 14.2223 240.474 14.1738 238.316 14.1738C236.24 14.1738 234.198 14.18 232.192 14.1934L232.181 12.3057L232.168 10.418C234.182 10.4046 236.232 10.3975 238.316 10.3975ZM550.348 7.48047C554.652 8.01051 559.012 8.50731 563.418 8.94434L563.045 12.7021C558.603 12.2616 554.214 11.7613 549.887 11.2285L550.348 7.48047ZM458.409 4.37109L458.882 6.19824C454.65 7.29313 450.707 8.80038 447.066 10.8018L446.157 9.14746L445.247 7.49316C449.197 5.32145 453.44 3.70617 457.936 2.54297L458.409 4.37109ZM537.288 5.77344L537.033 7.64355L536.777 9.51465C532.349 8.91029 527.972 8.29587 523.705 7.70996L524.219 3.96973C528.509 4.55892 532.852 5.1681 537.288 5.77344ZM497.934 0.831055C502.217 1.20784 506.615 1.69315 511.11 2.24512L510.881 4.11914L510.65 5.99316C506.183 5.44465 501.831 4.96465 497.603 4.59277L497.769 2.71191L497.934 0.831055ZM471.255 0.374023C475.551 0.020632 480.023 -0.0666157 484.649 0.046875L484.603 1.93457L484.557 3.82129C480.035 3.71035 475.7 3.79651 471.564 4.13672L471.41 2.25586L471.255 0.374023Z" fill="#626262"/>
</svg>
