<svg width="809" height="578" viewBox="0 0 809 578" fill="currentColor" xmlns="http://www.w3.org/2000/svg">
<path d="M21.2319 179.351C-42.2771 286.913 65.7005 468.352 127.66 545.607C130.537 551.003 151.347 565.025 245.837 565.025C363.95 565.025 294.244 419.955 340.714 419.955C387.184 419.955 408.483 462.415 427.846 531.411C447.208 600.408 513.041 568.563 590.492 565.025C652.452 562.194 657.616 467.133 652.452 419.955C672.46 418.776 726.805 396.957 784.118 319.114C864.667 160.599 714.413 41.9472 629.217 2.43555L567.257 108.588C538.213 72.0263 482.923 13.0072 480.125 14.8261C465.925 24.0555 381.376 122.744 363.949 129.82C346.523 136.897 257.455 124.51 218.73 108.588C180.004 92.6653 100.618 44.8985 21.2319 179.351Z" stroke="#626262" stroke-width="3.77559" stroke-dasharray="12.59 12.59"/>
</svg>
