<svg width="170" height="204" viewBox="0 0 170 204" fill="currentColor" xmlns="http://www.w3.org/2000/svg">
<path fill-rule="evenodd" clip-rule="evenodd" d="M112.428 198.592C114.027 198.259 115.721 197.839 117.482 197.325L118.078 199.37L118.674 201.414C116.28 202.112 113.991 202.652 111.86 203.044L110.512 203.292L109.728 202.167L106.384 197.368L108.131 196.151L109.878 194.934L112.428 198.592ZM61.3643 196.166L63.1055 197.391L59.7422 202.174L58.958 203.291L57.6152 203.044C55.4848 202.652 53.195 202.112 50.8018 201.414L51.3975 199.37L51.9932 197.325C53.7568 197.839 55.4527 198.26 57.0537 198.593L59.6221 194.942L61.3643 196.166ZM28.3711 185.727C32.0362 188.419 35.8689 190.68 39.6738 192.542L38.7373 194.454L37.8018 196.366C33.7913 194.403 29.738 192.015 25.8496 189.158L28.3711 185.727ZM143.626 189.158C139.738 192.015 135.684 194.403 131.674 196.366L130.738 194.454L129.802 192.542C133.607 190.68 137.439 188.419 141.104 185.727L143.626 189.158ZM74.8164 177.031L76.5576 178.255L69.832 187.823L66.3477 185.374L73.0742 175.807L74.8164 177.031ZM103.189 185.335L101.442 186.553L99.6963 187.77L93.0078 178.172L94.7549 176.955L96.502 175.737L103.189 185.335ZM11.0459 166.276C13.1978 170.218 15.766 173.76 18.6143 176.931L17.0303 178.354L15.4463 179.777C12.3935 176.379 9.62894 172.568 7.30762 168.316L9.17676 167.295L11.0459 166.276ZM160.299 167.295L162.168 168.316C159.847 172.568 157.082 176.379 154.029 179.777L152.445 178.354L150.861 176.931C153.71 173.76 156.278 170.218 158.43 166.276L160.299 167.295ZM89.8135 166.14L88.0664 167.357L86.3193 168.574L84.8477 166.463L83.2842 168.688L81.542 167.463L79.8008 166.238L83.1631 161.455L84.7266 162.554L86.4697 161.341L89.8135 166.14ZM4.25488 141.193C4.46288 145.843 5.14405 150.156 6.20996 154.15L4.15234 154.698L2.0957 155.247C0.948802 150.95 0.22141 146.333 0 141.383L2.12695 141.287L4.25488 141.193ZM167.349 141.287L169.476 141.383C169.254 146.333 168.527 150.95 167.38 155.247L165.323 154.698L163.266 154.15C164.332 150.156 165.013 145.843 165.221 141.193L167.349 141.287ZM7.6543 114.084C7.0753 116.515 6.52656 118.969 6.00879 121.443C5.538 123.692 5.16359 125.881 4.87988 128.011L2.76953 127.73L0.658203 127.448C0.956205 125.211 1.34922 122.918 1.84082 120.569C2.36657 118.058 2.92378 115.566 3.51172 113.098L7.6543 114.084ZM165.964 113.098C166.552 115.566 167.109 118.058 167.635 120.569C168.126 122.918 168.519 125.211 168.817 127.448L166.706 127.73L164.596 128.011C164.312 125.881 163.938 123.692 163.467 121.443C162.949 118.969 162.4 116.515 161.821 114.084L165.964 113.098ZM16.2559 85.2208C14.5801 89.8606 13.0065 94.6345 11.5508 99.5246L9.50977 98.9171L7.46973 98.3097C8.94856 93.3421 10.5464 88.4903 12.25 83.7736L16.2559 85.2208ZM157.226 83.7736C158.929 88.4903 160.527 93.3421 162.006 98.3097L159.966 98.9171L157.925 99.5246C156.469 94.6345 154.895 89.8606 153.22 85.2208L157.226 83.7736ZM26.3125 56.6291L28.207 57.6017C25.9789 61.9414 23.8355 66.4859 21.7959 71.2121L17.8857 69.5246C19.9618 64.7141 22.1461 60.0833 24.4189 55.6564L26.3125 56.6291ZM145.057 55.6564C147.329 60.0833 149.514 64.7141 151.59 69.5246L147.68 71.2121C145.64 66.486 143.497 61.9414 141.269 57.6017L143.163 56.6291L145.057 55.6564ZM42.2881 30.8341L43.9873 32.1164C41.115 35.9213 38.297 40.0631 35.5625 44.508L33.749 43.3927L31.9355 42.2765C34.735 37.7262 37.6279 33.472 40.5879 29.5509L42.2881 30.8341ZM128.888 29.5509C131.848 33.472 134.741 37.7262 137.54 42.2765L135.727 43.3927L133.913 44.508C131.179 40.0632 128.361 35.9213 125.488 32.1164L127.188 30.8341L128.888 29.5509ZM63.6885 9.4562L64.8896 11.214C61.1664 13.7571 57.4057 16.9656 53.667 20.7843L52.1455 19.2941L50.624 17.8048C54.5228 13.8225 58.495 10.4243 62.4873 7.69741L63.6885 9.4562ZM106.988 7.69741C110.981 10.4243 114.953 13.8225 118.852 17.8048L117.33 19.2941L115.809 20.7843C112.07 16.9656 108.309 13.7571 104.586 11.214L105.787 9.4562L106.988 7.69741ZM84.7373 0.00698183C87.3489 -0.0524306 89.9932 0.268233 92.6475 0.934716L91.6104 5.06558C89.2784 4.48003 87.0036 4.211 84.7969 4.26479V4.26772C84.7772 4.26714 84.757 4.2663 84.7373 4.26577C84.7178 4.2663 84.6982 4.26715 84.6787 4.26772L84.6777 4.26479C82.4713 4.21108 80.1968 4.48014 77.8652 5.06558L76.8281 0.934716C79.482 0.26834 82.126 -0.0523547 84.7373 0.00698183Z" fill="#3E3E3E"/>
</svg>
