<svg width="400" height="400" viewBox="0 0 400 400" fill="none" xmlns="http://www.w3.org/2000/svg">
<path d="M206.34 95.7824C319.039 95.7824 330.115 228.833 321.565 295.358L95.5961 295.573C85.5533 224.03 93.6422 95.7824 206.34 95.7824Z" fill="#0049DB"/>
<path d="M205.156 110.623C303.36 110.623 313.011 226.562 305.561 284.531L108.654 284.719C99.9032 222.377 106.952 110.623 205.156 110.623Z" fill="#FF1E1E"/>
<path d="M185.012 200.605C178.711 195.415 160.976 187.046 140.444 195.089" stroke="black" stroke-width="7" stroke-linecap="round"/>
<path d="M183.438 216.196C175.284 216.584 156.524 222.298 146.716 242.048" stroke="black" stroke-width="7" stroke-linecap="round"/>
<path d="M194.488 229.806C189.265 236.079 180.802 253.77 188.736 274.344" stroke="black" stroke-width="7" stroke-linecap="round"/>
<path d="M211.061 231.169C211.793 239.299 218.293 257.801 238.439 266.766" stroke="black" stroke-width="7" stroke-linecap="round"/>
<path d="M223.052 221.694C228.95 227.338 246.014 237.002 267.087 230.508" stroke="black" stroke-width="7" stroke-linecap="round"/>
<path d="M225.737 206.041C233.899 206.174 252.986 201.67 264.034 182.586" stroke="black" stroke-width="7" stroke-linecap="round"/>
<path d="M216.185 192.135C221.989 186.394 232.12 169.603 226.208 148.359" stroke="black" stroke-width="7" stroke-linecap="round"/>
<path d="M198.196 189.594C197.623 181.451 191.485 162.825 171.517 153.469" stroke="black" stroke-width="7" stroke-linecap="round"/>
<path d="M212.553 160.439C223.225 165.826 220.898 190.092 218.4 201.551L196.997 190.788C197.862 177.544 201.882 155.052 212.553 160.439Z" fill="#FCDF0C"/>
<path d="M172.563 171.386C183.686 167.005 200.25 184.89 207.142 194.38L184.865 203.193C175.555 193.735 161.441 175.767 172.563 171.386Z" fill="#FCDF0C"/>
<path d="M154.42 204.681C159.39 193.808 183.727 195.194 195.275 197.245L185.349 219.049C172.082 218.699 149.451 215.553 154.42 204.681Z" fill="#FCDF0C"/>
<path d="M164.065 240.72C160.247 229.392 178.939 213.745 188.762 207.337L196.449 230.028C186.536 238.852 167.883 252.049 164.065 240.72Z" fill="#FCDF0C"/>
<path d="M199.06 260.881C188.175 255.94 189.494 231.599 191.515 220.046L213.346 229.914C213.031 243.181 209.946 265.821 199.06 260.881Z" fill="#FCDF0C"/>
<path d="M235.313 250.962C224.018 254.878 208.211 236.321 201.719 226.553L224.343 218.672C233.252 228.508 246.608 247.047 235.313 250.962Z" fill="#FCDF0C"/>
<path d="M254.689 219.256C249.1 229.824 224.883 227.036 213.473 224.322L224.641 203.127C237.865 204.242 260.277 208.688 254.689 219.256Z" fill="#FCDF0C"/>
<path d="M247.236 182.861C250.356 194.401 230.744 208.879 220.548 214.675L214.26 191.558C224.693 183.355 244.116 171.321 247.236 182.861Z" fill="#FCDF0C"/>
<circle cx="23.1272" cy="23.1272" r="23.1272" transform="matrix(-1 0 0 1 227.656 187.945)" fill="#FC6C0C"/>
</svg>
