<svg width="400" height="400" viewBox="0 0 400 400" fill="none" xmlns="http://www.w3.org/2000/svg">
<g clip-path="url(#clip0_271_43)">
<path d="M258.237 76.0613C235.75 27.2392 166.083 28.0581 144.751 77.3954L124.128 125.091L92.7948 208.962L78.7782 254.176C69.6208 283.715 83.5775 315.493 111.525 328.736L151.624 347.737C159.942 351.679 169.031 353.723 178.235 353.723H221.764C230.968 353.723 240.057 351.679 248.375 347.737L290.64 327.71C317.634 314.918 331.708 284.731 324.152 255.831L311.897 208.962L277.7 118.319L258.237 76.0613Z" fill="#0049DB"/>
<path d="M253.664 98.1154C233.89 59.4503 179.378 57.4386 156.807 94.541L134.955 130.462C133.136 133.453 131.604 136.608 130.379 139.887L104.229 209.884L91.7072 250.275C83.5265 276.664 95.9947 305.053 120.961 316.883L156.784 333.858C164.214 337.379 172.334 339.205 180.557 339.205H219.442C227.665 339.205 235.785 337.379 243.215 333.858L280.973 315.966C305.088 304.539 317.661 277.571 310.911 251.754L299.963 209.884L269.413 128.908L253.664 98.1154Z" fill="#FCDF0C"/>
<path d="M205.146 196.092C204.895 192.927 200.258 192.927 200.007 196.092L198.967 209.176C198.766 211.705 195.417 212.453 194.158 210.25L187.664 198.881C186.091 196.126 181.898 198.094 183.012 201.065L187.722 213.62C188.608 215.983 185.922 218.081 183.844 216.648L172.869 209.077C170.262 207.279 167.336 210.856 169.616 213.055L179.496 222.586C181.3 224.327 179.809 227.358 177.329 226.992L163.815 224.995C160.686 224.532 159.635 229.023 162.643 229.997L175.808 234.262C178.186 235.032 178.186 238.396 175.808 239.167L162.643 243.431C159.635 244.405 160.686 248.896 163.815 248.433L177.329 246.436C179.809 246.07 181.3 249.101 179.496 250.842L169.616 260.374C167.336 262.572 170.262 266.149 172.869 264.351L183.844 256.781C185.922 255.347 188.608 257.445 187.722 259.808L183.012 272.363C181.898 275.334 186.091 277.302 187.664 274.547L194.158 263.178C195.417 260.975 198.766 261.723 198.967 264.252L200.007 277.336C200.258 280.501 204.895 280.501 205.146 277.336L206.186 264.252C206.387 261.723 209.736 260.975 210.994 263.178L217.489 274.547C219.062 277.302 223.255 275.334 222.141 272.363L217.431 259.808C216.545 257.445 219.231 255.347 221.309 256.781L232.284 264.351C234.891 266.149 237.816 262.572 235.537 260.374L225.657 250.842C223.853 249.101 225.344 246.07 227.824 246.436L241.338 248.433C244.467 248.896 245.518 244.405 242.509 243.431L229.345 239.167C226.967 238.396 226.967 235.032 229.345 234.262L242.509 229.997C245.518 229.023 244.467 224.532 241.338 224.995L227.824 226.992C225.344 227.358 223.853 224.327 225.657 222.586L235.537 213.055C237.816 210.856 234.891 207.279 232.284 209.077L221.309 216.648C219.231 218.081 216.545 215.983 217.431 213.62L222.141 201.065C223.255 198.094 219.062 196.126 217.489 198.881L210.994 210.25C209.736 212.453 206.387 211.705 206.186 209.176L205.146 196.092Z" fill="#FF0000"/>
<mask id="path-4-inside-1_271_43" fill="white">
<path d="M185.665 138.658L159.364 116.336L155.715 164.234L126.05 164.355L136.499 209.527L110.268 232.065L132.422 264.162L115.633 303.952L144.417 315.621L144.333 316.766H260.823L260.739 315.621L289.523 303.952L272.733 264.162L294.889 232.065L268.656 209.527L279.105 164.355L249.441 164.234L245.792 116.336L219.491 138.658L202.578 99.0059L185.665 138.658Z"/>
</mask>
<path fill-rule="evenodd" clip-rule="evenodd" d="M185.665 138.658L188.389 139.82L186.812 143.516L183.749 140.916L185.665 138.658ZM159.364 116.336L156.412 116.111L156.853 110.32L161.28 114.078L159.364 116.336ZM155.715 164.234L158.667 164.459L158.46 167.184L155.727 167.196L155.715 164.234ZM126.05 164.355L123.165 165.023L122.329 161.409L126.038 161.394L126.05 164.355ZM136.499 209.527L139.384 208.86L139.788 210.606L138.429 211.773L136.499 209.527ZM110.268 232.065L107.831 233.748L106.317 231.555L108.338 229.819L110.268 232.065ZM132.422 264.162L134.859 262.48L135.782 263.817L135.15 265.313L132.422 264.162ZM115.633 303.952L114.52 306.696L111.737 305.568L112.905 302.801L115.633 303.952ZM144.417 315.621L145.529 312.877L147.528 313.687L147.37 315.838L144.417 315.621ZM144.333 316.766V319.727H141.147L141.38 316.549L144.333 316.766ZM260.823 316.766L263.776 316.549L264.01 319.727H260.823V316.766ZM260.739 315.621L257.786 315.838L257.628 313.687L259.627 312.877L260.739 315.621ZM289.523 303.952L292.252 302.801L293.419 305.568L290.636 306.696L289.523 303.952ZM272.733 264.162L270.005 265.313L269.374 263.817L270.296 262.48L272.733 264.162ZM294.889 232.065L296.818 229.819L298.839 231.555L297.326 233.748L294.889 232.065ZM268.656 209.527L266.727 211.773L265.367 210.606L265.771 208.86L268.656 209.527ZM279.105 164.355L279.118 161.394L282.826 161.409L281.99 165.023L279.105 164.355ZM249.441 164.234L249.429 167.196L246.696 167.184L246.489 164.459L249.441 164.234ZM245.792 116.336L243.876 114.078L248.303 110.32L248.745 116.111L245.792 116.336ZM219.491 138.658L221.407 140.916L218.344 143.516L216.767 139.82L219.491 138.658ZM202.578 99.0059L199.854 97.8441L202.578 91.4583L205.302 97.8441L202.578 99.0059ZM185.665 138.658L183.749 140.916L157.448 118.594L159.364 116.336L161.28 114.078L187.581 136.401L185.665 138.658ZM159.364 116.336L162.317 116.561L158.667 164.459L155.715 164.234L152.762 164.009L156.412 116.111L159.364 116.336ZM155.715 164.234L155.727 167.196L126.062 167.317L126.05 164.355L126.038 161.394L155.703 161.273L155.715 164.234ZM126.05 164.355L128.935 163.688L139.384 208.86L136.499 209.527L133.614 210.195L123.165 165.023L126.05 164.355ZM136.499 209.527L138.429 211.773L112.197 234.311L110.268 232.065L108.338 229.819L134.569 207.281L136.499 209.527ZM110.268 232.065L112.705 230.383L134.859 262.48L132.422 264.162L129.985 265.844L107.831 233.748L110.268 232.065ZM132.422 264.162L135.15 265.313L118.361 305.103L115.633 303.952L112.905 302.801L129.694 263.011L132.422 264.162ZM115.633 303.952L116.745 301.208L145.529 312.877L144.417 315.621L143.304 318.365L114.52 306.696L115.633 303.952ZM144.417 315.621L147.37 315.838L147.286 316.982L144.333 316.766L141.38 316.549L141.464 315.404L144.417 315.621ZM144.333 316.766V313.804H260.823V316.766V319.727H144.333V316.766ZM260.823 316.766L257.87 316.982L257.786 315.838L260.739 315.621L263.692 315.404L263.776 316.549L260.823 316.766ZM260.739 315.621L259.627 312.877L288.411 301.208L289.523 303.952L290.636 306.696L261.852 318.365L260.739 315.621ZM289.523 303.952L286.795 305.103L270.005 265.313L272.733 264.162L275.462 263.011L292.252 302.801L289.523 303.952ZM272.733 264.162L270.296 262.48L292.452 230.383L294.889 232.065L297.326 233.748L275.17 265.844L272.733 264.162ZM294.889 232.065L292.959 234.311L266.727 211.773L268.656 209.527L270.586 207.281L296.818 229.819L294.889 232.065ZM268.656 209.527L265.771 208.86L276.22 163.688L279.105 164.355L281.99 165.023L271.541 210.195L268.656 209.527ZM279.105 164.355L279.093 167.317L249.429 167.196L249.441 164.234L249.453 161.273L279.118 161.394L279.105 164.355ZM249.441 164.234L246.489 164.459L242.839 116.561L245.792 116.336L248.745 116.111L252.394 164.009L249.441 164.234ZM245.792 116.336L247.708 118.594L221.407 140.916L219.491 138.658L217.575 136.401L243.876 114.078L245.792 116.336ZM219.491 138.658L216.767 139.82L199.854 100.168L202.578 99.0059L205.302 97.8441L222.215 137.496L219.491 138.658ZM202.578 99.0059L205.302 100.168L188.389 139.82L185.665 138.658L182.941 137.496L199.854 97.8441L202.578 99.0059Z" fill="#FF0000" mask="url(#path-4-inside-1_271_43)"/>
</g>
<defs>
<clipPath id="clip0_271_43">
<rect width="400" height="400" fill="white"/>
</clipPath>
</defs>
</svg>
