<svg width="400" height="400" viewBox="0 0 400 400" fill="none" xmlns="http://www.w3.org/2000/svg">
<path d="M200.921 95.7824C88.2231 95.7824 77.1472 228.833 85.6965 295.358L311.666 295.573C321.708 224.03 313.62 95.7824 200.921 95.7824Z" fill="#0049DB"/>
<path d="M202.108 110.623C103.904 110.623 94.2524 226.562 101.702 284.531L298.609 284.719C307.36 222.377 300.312 110.623 202.108 110.623Z" fill="#FF1E1E"/>
<path d="M222.251 200.605C228.552 195.415 246.288 187.046 266.82 195.089" stroke="black" stroke-width="7" stroke-linecap="round"/>
<path d="M223.826 216.196C231.98 216.584 250.74 222.298 260.547 242.048" stroke="black" stroke-width="7" stroke-linecap="round"/>
<path d="M212.775 229.806C217.999 236.079 226.461 253.77 218.527 274.344" stroke="black" stroke-width="7" stroke-linecap="round"/>
<path d="M196.203 231.169C195.471 239.299 188.971 257.801 168.824 266.766" stroke="black" stroke-width="7" stroke-linecap="round"/>
<path d="M184.212 221.694C178.314 227.338 161.25 237.002 140.177 230.508" stroke="black" stroke-width="7" stroke-linecap="round"/>
<path d="M181.526 206.041C173.364 206.174 154.278 201.67 143.229 182.586" stroke="black" stroke-width="7" stroke-linecap="round"/>
<path d="M191.079 192.135C185.274 186.394 175.144 169.603 181.056 148.359" stroke="black" stroke-width="7" stroke-linecap="round"/>
<path d="M209.068 189.594C209.641 181.451 215.779 162.825 235.747 153.469" stroke="black" stroke-width="7" stroke-linecap="round"/>
<path d="M194.71 160.439C184.039 165.826 186.366 190.092 188.863 201.551L210.266 190.788C209.402 177.544 205.382 155.052 194.71 160.439Z" fill="#FCDF0C"/>
<path d="M234.698 171.386C223.576 167.005 207.012 184.89 200.12 194.38L222.397 203.193C231.707 193.735 245.821 175.767 234.698 171.386Z" fill="#FCDF0C"/>
<path d="M252.843 204.681C247.874 193.808 223.536 195.194 211.989 197.245L221.915 219.049C235.182 218.699 257.813 215.553 252.843 204.681Z" fill="#FCDF0C"/>
<path d="M243.198 240.72C247.017 229.392 228.325 213.745 218.501 207.337L210.815 230.028C220.727 238.852 239.38 252.049 243.198 240.72Z" fill="#FCDF0C"/>
<path d="M208.201 260.881C219.087 255.94 217.767 231.599 215.747 220.046L193.916 229.914C194.231 243.181 197.316 265.821 208.201 260.881Z" fill="#FCDF0C"/>
<path d="M171.949 250.962C183.244 254.878 199.051 236.321 205.543 226.553L182.919 218.672C174.01 228.508 160.654 247.047 171.949 250.962Z" fill="#FCDF0C"/>
<path d="M152.573 219.256C158.162 229.824 182.379 227.036 193.788 224.322L182.621 203.127C169.396 204.242 146.984 208.688 152.573 219.256Z" fill="#FCDF0C"/>
<path d="M160.028 182.861C156.908 194.401 176.52 208.879 186.715 214.675L193.003 191.558C182.571 183.355 163.148 171.321 160.028 182.861Z" fill="#FCDF0C"/>
<circle cx="202.733" cy="211.073" r="23.1272" fill="#FC6C0C"/>
</svg>
