<svg width="400" height="400" viewBox="0 0 400 400" fill="none" xmlns="http://www.w3.org/2000/svg">
<g clip-path="url(#clip0_271_35)">
<path d="M141.763 76.0613C164.25 27.2392 233.917 28.0581 255.249 77.3954L275.872 125.091L307.205 208.962L321.222 254.176C330.379 283.715 316.422 315.493 288.475 328.736L248.376 347.737C240.058 351.679 230.969 353.723 221.765 353.723H178.236C169.032 353.723 159.943 351.679 151.625 347.737L109.36 327.71C82.366 314.918 68.2917 284.731 75.8481 255.831L88.1027 208.962L122.3 118.319L141.763 76.0613Z" fill="#0049DB"/>
<path d="M146.336 98.1154C166.11 59.4503 220.622 57.4386 243.193 94.541L265.045 130.462C266.864 133.453 268.396 136.608 269.621 139.887L295.771 209.884L308.293 250.275C316.474 276.664 304.005 305.053 279.039 316.883L243.216 333.858C235.786 337.379 227.666 339.205 219.443 339.205H180.558C172.335 339.205 164.215 337.379 156.785 333.858L119.027 315.966C94.9123 304.539 82.339 277.571 89.0895 251.754L100.037 209.884L130.587 128.908L146.336 98.1154Z" fill="#FCDF0C"/>
<path d="M194.854 196.092C195.105 192.927 199.742 192.927 199.993 196.092L201.033 209.176C201.234 211.705 204.583 212.453 205.842 210.25L212.336 198.881C213.909 196.126 218.102 198.094 216.988 201.065L212.278 213.62C211.392 215.983 214.078 218.081 216.156 216.648L227.131 209.077C229.738 207.279 232.664 210.856 230.384 213.055L220.504 222.586C218.7 224.327 220.191 227.358 222.671 226.992L236.185 224.995C239.314 224.532 240.365 229.023 237.357 229.997L224.192 234.262C221.814 235.032 221.814 238.396 224.192 239.167L237.357 243.431C240.365 244.405 239.314 248.896 236.185 248.433L222.671 246.436C220.191 246.07 218.7 249.101 220.504 250.842L230.384 260.374C232.664 262.572 229.738 266.149 227.131 264.351L216.156 256.781C214.078 255.347 211.392 257.445 212.278 259.808L216.988 272.363C218.102 275.334 213.909 277.302 212.336 274.547L205.842 263.178C204.583 260.975 201.234 261.723 201.033 264.252L199.993 277.336C199.742 280.501 195.105 280.501 194.854 277.336L193.814 264.252C193.613 261.723 190.264 260.975 189.006 263.178L182.511 274.547C180.938 277.302 176.745 275.334 177.859 272.363L182.569 259.808C183.455 257.445 180.769 255.347 178.691 256.781L167.716 264.351C165.109 266.149 162.184 262.572 164.463 260.374L174.343 250.842C176.147 249.101 174.656 246.07 172.176 246.436L158.662 248.433C155.533 248.896 154.482 244.405 157.491 243.431L170.655 239.167C173.033 238.396 173.033 235.032 170.655 234.262L157.491 229.997C154.482 229.023 155.533 224.532 158.662 224.995L172.176 226.992C174.656 227.358 176.147 224.327 174.343 222.586L164.463 213.055C162.184 210.856 165.109 207.279 167.716 209.077L178.691 216.648C180.769 218.081 183.455 215.983 182.569 213.62L177.859 201.065C176.745 198.094 180.938 196.126 182.511 198.881L189.006 210.25C190.264 212.453 193.613 211.705 193.814 209.176L194.854 196.092Z" fill="#FF0000"/>
<mask id="path-4-inside-1_271_35" fill="white">
<path d="M214.335 138.659L240.636 116.337L244.285 164.235L273.95 164.356L263.501 209.528L289.732 232.066L267.578 264.163L284.367 303.953L255.583 315.622L255.667 316.767H139.177L139.261 315.622L110.477 303.953L127.267 264.163L105.111 232.066L131.344 209.528L120.895 164.356L150.559 164.235L154.208 116.337L180.509 138.659L197.422 99.0059L214.335 138.659Z"/>
</mask>
<path fill-rule="evenodd" clip-rule="evenodd" d="M214.335 138.659L211.611 139.821L213.188 143.517L216.251 140.917L214.335 138.659ZM240.636 116.337L243.588 116.112L243.147 110.321L238.72 114.079L240.636 116.337ZM244.285 164.235L241.333 164.46L241.54 167.185L244.273 167.196L244.285 164.235ZM273.95 164.356L276.835 165.024L277.671 161.41L273.962 161.395L273.95 164.356ZM263.501 209.528L260.616 208.861L260.212 210.607L261.571 211.774L263.501 209.528ZM289.732 232.066L292.169 233.749L293.683 231.556L291.662 229.82L289.732 232.066ZM267.578 264.163L265.141 262.481L264.218 263.818L264.85 265.314L267.578 264.163ZM284.367 303.953L285.48 306.697L288.263 305.569L287.095 302.802L284.367 303.953ZM255.583 315.622L254.471 312.878L252.472 313.688L252.63 315.839L255.583 315.622ZM255.667 316.767V319.728H258.853L258.62 316.55L255.667 316.767ZM139.177 316.767L136.224 316.55L135.99 319.728H139.177V316.767ZM139.261 315.622L142.214 315.839L142.372 313.688L140.373 312.878L139.261 315.622ZM110.477 303.953L107.748 302.802L106.581 305.569L109.364 306.697L110.477 303.953ZM127.267 264.163L129.995 265.314L130.626 263.818L129.704 262.481L127.267 264.163ZM105.111 232.066L103.182 229.82L101.161 231.556L102.674 233.749L105.111 232.066ZM131.344 209.528L133.273 211.774L134.633 210.607L134.229 208.861L131.344 209.528ZM120.895 164.356L120.882 161.395L117.174 161.41L118.01 165.024L120.895 164.356ZM150.559 164.235L150.571 167.196L153.304 167.185L153.511 164.46L150.559 164.235ZM154.208 116.337L156.124 114.079L151.697 110.321L151.255 116.112L154.208 116.337ZM180.509 138.659L178.593 140.917L181.656 143.517L183.233 139.821L180.509 138.659ZM197.422 99.0059L200.146 97.8441L197.422 91.4582L194.698 97.8441L197.422 99.0059ZM214.335 138.659L216.251 140.917L242.552 118.595L240.636 116.337L238.72 114.079L212.419 136.402L214.335 138.659ZM240.636 116.337L237.683 116.562L241.333 164.46L244.285 164.235L247.238 164.01L243.588 116.112L240.636 116.337ZM244.285 164.235L244.273 167.196L273.938 167.318L273.95 164.356L273.962 161.395L244.297 161.274L244.285 164.235ZM273.95 164.356L271.065 163.689L260.616 208.861L263.501 209.528L266.386 210.196L276.835 165.024L273.95 164.356ZM263.501 209.528L261.571 211.774L287.803 234.312L289.732 232.066L291.662 229.82L265.431 207.282L263.501 209.528ZM289.732 232.066L287.295 230.384L265.141 262.481L267.578 264.163L270.015 265.845L292.169 233.749L289.732 232.066ZM267.578 264.163L264.85 265.314L281.639 305.104L284.367 303.953L287.095 302.802L270.306 263.012L267.578 264.163ZM284.367 303.953L283.255 301.209L254.471 312.878L255.583 315.622L256.696 318.366L285.48 306.697L284.367 303.953ZM255.583 315.622L252.63 315.839L252.714 316.983L255.667 316.767L258.62 316.55L258.536 315.405L255.583 315.622ZM255.667 316.767V313.805H139.177V316.767V319.728H255.667V316.767ZM139.177 316.767L142.13 316.983L142.214 315.839L139.261 315.622L136.308 315.405L136.224 316.55L139.177 316.767ZM139.261 315.622L140.373 312.878L111.589 301.209L110.477 303.953L109.364 306.697L138.148 318.366L139.261 315.622ZM110.477 303.953L113.205 305.104L129.995 265.314L127.267 264.163L124.538 263.012L107.748 302.802L110.477 303.953ZM127.267 264.163L129.704 262.481L107.548 230.384L105.111 232.066L102.674 233.749L124.83 265.845L127.267 264.163ZM105.111 232.066L107.041 234.312L133.273 211.774L131.344 209.528L129.414 207.282L103.182 229.82L105.111 232.066ZM131.344 209.528L134.229 208.861L123.78 163.689L120.895 164.356L118.01 165.024L128.459 210.196L131.344 209.528ZM120.895 164.356L120.907 167.318L150.571 167.196L150.559 164.235L150.547 161.274L120.882 161.395L120.895 164.356ZM150.559 164.235L153.511 164.46L157.161 116.562L154.208 116.337L151.255 116.112L147.606 164.01L150.559 164.235ZM154.208 116.337L152.292 118.595L178.593 140.917L180.509 138.659L182.425 136.402L156.124 114.079L154.208 116.337ZM180.509 138.659L183.233 139.821L200.146 100.168L197.422 99.0059L194.698 97.8441L177.785 137.497L180.509 138.659ZM197.422 99.0059L194.698 100.168L211.611 139.821L214.335 138.659L217.059 137.497L200.146 97.8441L197.422 99.0059Z" fill="#FF0000" mask="url(#path-4-inside-1_271_35)"/>
</g>
<defs>
<clipPath id="clip0_271_35">
<rect width="400" height="400" fill="white"/>
</clipPath>
</defs>
</svg>
