<svg width="400" height="400" viewBox="0 0 400 400" fill="none" xmlns="http://www.w3.org/2000/svg">
<path d="M293.939 99.7637C298.038 96.7309 303.883 100.925 302.221 105.745L252.382 250.245C252.111 251.03 251.678 251.69 251.141 252.216C248.171 269.811 239.931 286.694 226.409 300.324C191.562 335.454 134.835 335.682 99.7059 300.834C64.577 265.986 64.349 209.257 99.1963 174.127C117.491 155.684 141.817 146.86 165.882 147.682C186.113 146.402 213.914 143.261 234.055 135.564C254.217 127.858 278.808 110.962 293.939 99.7637Z" fill="#FF0000"/>
<ellipse cx="78.9037" cy="78.9037" rx="78.9037" ry="78.9037" transform="matrix(0.709936 0.704266 -0.704249 0.709953 161.65 124.926)" fill="white"/>
<ellipse cx="66.1905" cy="66.1905" rx="66.1905" ry="66.1905" transform="matrix(0.709936 0.704266 -0.704249 0.709953 161.725 142.902)" fill="#0B0704"/>
<ellipse cx="31.4254" cy="31.4254" rx="31.4254" ry="31.4254" transform="matrix(0.709936 0.704266 -0.704249 0.709953 171.629 176.793)" fill="white"/>
</svg>
