<svg width="400" height="400" viewBox="0 0 400 400" fill="none" xmlns="http://www.w3.org/2000/svg">
<path d="M274.912 63.8867C278.755 62.6719 282.383 66.2705 281.199 70.1232L232.182 229.597C232.056 230.006 231.884 230.382 231.677 230.725C227.329 242.941 220.289 254.417 210.552 264.233C175.158 299.913 117.54 300.145 81.8599 264.75C46.1795 229.356 45.9478 171.738 81.3423 136.058C91.1434 126.178 102.649 119.016 114.92 114.576C115.205 114.42 115.511 114.289 115.838 114.185L274.912 63.8867Z" fill="#FF0000"/>
<path d="M260.538 78.419C264.381 77.2029 268.011 80.8027 266.825 84.6562L224.251 223.033C224.145 223.377 224.007 223.698 223.844 223.996C220.045 235.114 213.734 245.567 204.904 254.469C173.733 285.891 122.991 286.096 91.568 254.925C60.1453 223.754 59.9413 173.011 91.1122 141.589C101.429 131.189 113.89 124.209 127.084 120.655L260.538 78.419Z" fill="white"/>
<path d="M155.436 242.829L140.785 278.16C139.391 278.071 137.999 277.947 136.61 277.785L151.74 241.298L155.436 242.829ZM130.588 212.356L131.855 213.903L86.0527 251.46C85.1612 250.46 84.2986 249.443 83.4658 248.41L129.319 210.81L130.588 212.356ZM222.392 222.454L177.122 234.991L176.054 231.136L223.788 217.916L222.392 222.454ZM124.456 180.99L66.5879 186.826C66.7826 185.458 67.0119 184.095 67.2773 182.736L124.055 177.011L124.456 180.99ZM242.584 156.825L210.29 168.937L208.886 165.19L244.07 151.996L242.584 156.825ZM111.492 163.816L107.684 162.597L120.66 122.114C122.097 121.638 123.544 121.202 125 120.81L125.31 120.711L111.492 163.816ZM179.076 131.687L175.403 130.103L188.014 100.866L193.06 99.2695L179.076 131.687ZM236.638 115.387L260.465 98.707L258.551 104.93L231.734 123.702L230.588 122.063L228.845 121.083L251.521 80.7676L257.104 79L236.638 115.387Z" fill="black"/>
<path d="M236.703 103.421C240.55 102.2 244.184 105.805 242.993 109.661L210.435 215.143C207.757 226.346 202.068 236.978 193.363 245.753C168.075 271.246 126.908 271.412 101.415 246.123C75.9228 220.834 75.7571 179.668 101.046 154.175C109.58 145.572 119.923 139.853 130.861 137.024L236.703 103.421Z" fill="#2A2A2A"/>
<circle cx="145.97" cy="200.702" r="39.3959" transform="rotate(44.7696 145.97 200.702)" fill="#FCDF0C"/>
<circle cx="146.193" cy="200.937" r="24.7046" transform="rotate(44.7696 146.193 200.937)" fill="#FF7D13"/>
<mask id="path-7-inside-1_271_259" fill="white">
<path d="M224.062 117.935C227.894 116.737 231.503 120.317 230.337 124.159L202.451 215.977C200.02 225.522 195.087 234.564 187.649 242.062C165.421 264.469 129.237 264.615 106.829 242.387C84.4218 220.159 84.2757 183.974 106.504 161.567C113.963 154.047 122.994 149.034 132.548 146.533L224.062 117.935Z"/>
</mask>
<path fill-rule="evenodd" clip-rule="evenodd" d="M224.062 117.935L222.869 114.117L222.869 114.117L224.062 117.935ZM230.337 124.159L234.164 125.322L234.164 125.322L230.337 124.159ZM202.451 215.977L198.624 214.815L198.597 214.902L198.575 214.99L202.451 215.977ZM187.649 242.062L190.488 244.879L190.488 244.879L187.649 242.062ZM106.829 242.387L104.012 245.227L104.012 245.227L106.829 242.387ZM106.504 161.567L103.664 158.75L103.664 158.75L106.504 161.567ZM132.548 146.533L133.561 150.402L133.652 150.378L133.741 150.351L132.548 146.533ZM224.062 117.935L225.255 121.753C226.021 121.513 226.743 122.229 226.509 122.997L230.337 124.159L234.164 125.322C236.264 118.406 229.767 111.961 222.869 114.117L224.062 117.935ZM230.337 124.159L226.509 122.997L198.624 214.815L202.451 215.977L206.279 217.14L234.164 125.322L230.337 124.159ZM202.451 215.977L198.575 214.99C196.315 223.862 191.731 232.267 184.809 239.245L187.649 242.062L190.488 244.879C198.443 236.86 203.724 227.182 206.327 216.965L202.451 215.977ZM187.649 242.062L184.809 239.245C164.137 260.084 130.485 260.219 109.646 239.547L106.829 242.387L104.012 245.227C127.988 269.01 166.705 268.855 190.488 244.879L187.649 242.062ZM106.829 242.387L109.646 239.547C88.8071 218.875 88.6713 185.223 109.343 164.384L106.504 161.567L103.664 158.75C79.8801 182.726 80.0364 221.443 104.012 245.227L106.829 242.387ZM106.504 161.567L109.343 164.384C116.285 157.386 124.68 152.727 133.561 150.402L132.548 146.533L131.535 142.663C121.307 145.341 111.64 150.709 103.664 158.75L106.504 161.567ZM132.548 146.533L133.741 150.351L225.255 121.753L224.062 117.935L222.869 114.117L131.355 142.715L132.548 146.533Z" fill="#FF0000" mask="url(#path-7-inside-1_271_259)"/>
<path d="M67.3438 259.704C84.7604 305.228 186.203 338.372 233.067 255.852C265.507 192.56 281.565 128.781 298.603 72.2695" stroke="#FF1E1E" stroke-width="3" stroke-linecap="round"/>
<path d="M65.9561 259.981L66.0547 260.24C68.972 267.865 74.1462 275.099 80.9316 281.517L114.688 342.76C115.087 343.485 114.823 344.397 114.099 344.797C113.373 345.197 112.461 344.932 112.061 344.207L71.7871 271.142L89.8438 338.529C90.0576 339.329 89.5827 340.152 88.7832 340.366C87.9833 340.58 87.161 340.105 86.9463 339.306L65.6963 260.001C65.695 259.996 65.6936 259.99 65.6924 259.985C65.69 259.976 65.6878 259.966 65.6855 259.957C65.685 259.954 65.6842 259.952 65.6836 259.949C65.682 259.942 65.6802 259.935 65.6787 259.928L65.6777 259.926C65.6742 259.909 65.6719 259.892 65.6689 259.875C65.6674 259.866 65.6645 259.857 65.6631 259.849C65.6609 259.835 65.659 259.821 65.6572 259.808C65.6566 259.803 65.6568 259.798 65.6562 259.793C65.6559 259.79 65.6556 259.787 65.6553 259.784C65.6543 259.775 65.6522 259.766 65.6514 259.758C65.6503 259.747 65.6502 259.735 65.6494 259.725C65.6481 259.707 65.6472 259.689 65.6465 259.671C65.6463 259.666 65.6447 259.661 65.6445 259.656V259.552C65.6451 259.538 65.6475 259.525 65.6484 259.512C65.6488 259.506 65.649 259.5 65.6494 259.494C65.6497 259.49 65.65 259.486 65.6504 259.481C65.6506 259.479 65.6511 259.477 65.6514 259.475C65.6521 259.466 65.6525 259.458 65.6533 259.45C65.6562 259.423 65.6597 259.397 65.6641 259.37C65.6665 259.355 65.67 259.34 65.6729 259.325C65.6791 259.293 65.686 259.261 65.6943 259.229C65.6947 259.228 65.6949 259.226 65.6953 259.225C65.6985 259.212 65.7025 259.2 65.7061 259.188C65.7079 259.182 65.71 259.176 65.7119 259.17C65.7189 259.147 65.7263 259.125 65.7344 259.102C65.7392 259.089 65.7438 259.076 65.749 259.062C65.7521 259.055 65.7546 259.047 65.7578 259.039C65.7593 259.035 65.7612 259.032 65.7627 259.028C65.7643 259.024 65.766 259.02 65.7676 259.017C65.7695 259.012 65.7714 259.007 65.7734 259.003C65.7778 258.993 65.7816 258.983 65.7861 258.974C65.7872 258.971 65.7889 258.969 65.79 258.967L65.8115 258.924C65.8137 258.919 65.8161 258.915 65.8184 258.911C65.8205 258.907 65.8231 258.903 65.8252 258.899C65.8257 258.898 65.8257 258.897 65.8262 258.896C65.8289 258.891 65.8312 258.886 65.834 258.881C65.8392 258.871 65.8452 258.863 65.8506 258.853C65.8567 258.843 65.8628 258.832 65.8691 258.822C65.8706 258.82 65.8726 258.818 65.874 258.815C65.8784 258.808 65.8822 258.801 65.8867 258.794C65.8881 258.792 65.8902 258.79 65.8916 258.788L65.9033 258.769C65.9068 258.764 65.9105 258.759 65.9141 258.754L65.9238 258.741C65.9276 258.736 65.9307 258.73 65.9346 258.725C65.9377 258.72 65.9412 258.716 65.9443 258.712L65.9561 258.696V259.981ZM81.5918 282.133C84.5811 284.895 87.8699 287.5 91.4062 289.914C105.019 307.012 118.586 321.28 138.998 340.308C139.603 340.872 139.637 341.821 139.073 342.427C138.508 343.033 137.558 343.066 136.952 342.502C112.716 319.91 98.0494 303.954 81.5918 282.133ZM98.6475 294.395C101.852 296.19 105.212 297.84 108.698 299.323C124.728 313.062 141.523 324.308 164.724 337.616C165.441 338.029 165.69 338.945 165.278 339.663C164.866 340.381 163.949 340.629 163.23 340.218C135.941 324.564 117.408 311.71 98.6475 294.395ZM119.185 303.154C122.688 304.233 126.281 305.144 129.938 305.871C146.922 315.082 165.982 322.555 190.85 330.403C191.639 330.653 192.077 331.496 191.828 332.286C191.579 333.076 190.736 333.513 189.946 333.265C161.772 324.373 140.869 315.915 121.965 304.817C121.033 304.27 120.107 303.714 119.185 303.154ZM157.913 307.615C175.412 313.102 194.41 316.917 217.107 319.985C217.928 320.097 218.503 320.851 218.393 321.672C218.282 322.492 217.526 323.069 216.705 322.959C190.521 319.419 169.126 314.877 149.237 307.895C152.119 307.927 155.014 307.836 157.913 307.615ZM186.112 301.01C202.697 302.518 220.742 302.566 241.702 301.454C242.529 301.411 243.235 302.045 243.279 302.872C243.323 303.699 242.687 304.406 241.86 304.45C218.202 305.706 198.156 305.495 179.683 303.363C181.84 302.665 183.985 301.882 186.112 301.01ZM264.197 280.955C265.009 280.792 265.801 281.317 265.965 282.129C266.128 282.941 265.601 283.732 264.789 283.895C241.516 288.581 221.388 291.255 202.833 291.981C204.317 290.965 205.785 289.895 207.235 288.77C224.348 287.821 242.927 285.238 264.197 280.955ZM279.658 257.843C280.445 257.583 281.294 258.01 281.554 258.797C281.813 259.583 281.386 260.431 280.6 260.691C258.368 268.036 238.695 273.366 220.139 276.709C221.189 275.536 222.225 274.327 223.245 273.079C240.562 269.743 258.971 264.677 279.658 257.843ZM288.511 233.38C289.247 233.002 290.152 233.293 290.53 234.029C290.908 234.766 290.618 235.67 289.882 236.049C275.568 243.404 256.898 250.064 235.161 255.262C235.758 254.089 236.35 252.916 236.936 251.743C257.39 246.693 274.961 240.342 288.511 233.38ZM298.94 204.023C299.657 203.609 300.575 203.853 300.99 204.569C301.405 205.286 301.16 206.204 300.444 206.619C281.261 217.734 263.411 226.551 245.593 233.568C246.189 232.256 246.78 230.944 247.364 229.632C264.103 222.858 280.925 214.462 298.94 204.023ZM317.657 175.05C318.373 174.634 319.291 174.877 319.707 175.593C320.123 176.308 319.881 177.227 319.165 177.643C295.561 191.381 274.604 202.358 255.151 211.316C255.702 209.96 256.247 208.605 256.787 207.25C275.34 198.581 295.302 188.06 317.657 175.05ZM329.527 137.94C330.175 137.424 331.119 137.53 331.636 138.178C332.151 138.825 332.045 139.77 331.397 140.286C309.346 157.859 287.945 172.316 265.199 185.054C265.719 183.613 266.232 182.174 266.741 180.736C288.244 168.485 308.589 154.626 329.527 137.94ZM338.397 98.4921C339.022 97.9479 339.97 98.0123 340.515 98.6366C341.058 99.2609 340.994 100.209 340.37 100.753C317.562 120.638 296.508 137.412 276.393 151.981C276.906 150.372 277.412 148.765 277.917 147.162C296.97 133.205 316.898 117.236 338.397 98.4921ZM344.051 58.6669C344.568 58.0201 345.512 57.9147 346.159 58.4316C346.805 58.9487 346.911 59.8921 346.395 60.539C328.847 82.509 309.869 102.193 285.446 122.524C285.966 120.78 286.482 119.041 286.995 117.306C309.624 98.1147 327.481 79.4123 344.051 58.6669Z" fill="#FF1E1E"/>
<path d="M112.29 340.175C114.499 340.175 116.29 341.966 116.29 344.175C116.29 346.384 114.499 348.175 112.29 348.175C110.081 348.175 108.29 346.384 108.29 344.175C108.29 341.966 110.081 340.175 112.29 340.175ZM139.216 339.67C141.425 339.67 143.216 341.461 143.216 343.67C143.216 345.879 141.425 347.67 139.216 347.67C137.007 347.67 135.216 345.879 135.216 343.67C135.216 341.461 137.007 339.67 139.216 339.67ZM88.0557 337.056C90.2646 337.056 92.0557 338.847 92.0557 341.056C92.0557 343.265 90.2646 345.055 88.0557 345.056C85.8465 345.056 84.0547 343.265 84.0547 341.056C84.0547 338.847 85.8465 337.056 88.0557 337.056ZM166.143 335.67C168.351 335.67 170.143 337.461 170.143 339.67C170.143 341.879 168.351 343.67 166.143 343.67C163.933 343.67 162.143 341.879 162.143 339.67C162.143 337.461 163.933 335.67 166.143 335.67ZM192.013 327.67C194.222 327.67 196.013 329.461 196.013 331.67C196.013 333.879 194.222 335.67 192.013 335.67C189.804 335.67 188.013 333.879 188.013 331.67C188.013 329.461 189.804 327.67 192.013 327.67ZM219.414 316.604C221.623 316.604 223.414 318.394 223.414 320.604C223.414 322.813 221.623 324.604 219.414 324.604C217.205 324.604 215.414 322.813 215.414 320.604C215.414 318.394 217.205 316.604 219.414 316.604ZM243.852 298.407C246.06 298.407 247.852 300.198 247.852 302.407C247.851 304.616 246.06 306.407 243.852 306.407C241.643 306.407 239.852 304.616 239.852 302.407C239.852 300.198 241.642 298.407 243.852 298.407ZM267.837 277.467C270.046 277.467 271.837 279.258 271.837 281.467C271.837 283.676 270.046 285.467 267.837 285.467C265.628 285.467 263.837 283.676 263.837 281.467C263.837 279.258 265.628 277.467 267.837 277.467ZM283.59 253.396C285.799 253.397 287.59 255.188 287.59 257.396C287.59 259.605 285.799 261.396 283.59 261.396C281.381 261.396 279.59 259.605 279.59 257.396C279.59 255.187 281.381 253.396 283.59 253.396ZM291.59 229.235C293.799 229.236 295.59 231.026 295.59 233.235C295.59 235.444 293.799 237.235 291.59 237.235C289.381 237.235 287.59 235.444 287.59 233.235C287.59 231.026 289.381 229.235 291.59 229.235ZM302.602 199.77C304.811 199.77 306.602 201.56 306.602 203.77C306.602 205.979 304.811 207.77 302.602 207.77C300.392 207.77 298.602 205.979 298.602 203.77C298.602 201.56 300.392 199.77 302.602 199.77ZM318.226 174.654C320.435 174.655 322.226 176.445 322.226 178.654C322.226 180.863 320.435 182.654 318.226 182.654C316.016 182.654 314.226 180.863 314.226 178.654C314.226 176.445 316.016 174.654 318.226 174.654ZM331.73 137.034C333.939 137.034 335.73 138.825 335.73 141.034C335.73 143.243 333.939 145.034 331.73 145.034C329.521 145.034 327.73 143.243 327.73 141.034C327.73 138.825 329.521 137.034 331.73 137.034ZM338.253 97.9678C340.462 97.9678 342.253 99.7586 342.253 101.968C342.253 104.177 340.462 105.968 338.253 105.968C336.044 105.968 334.253 104.177 334.253 101.968C334.253 99.7586 336.044 97.9678 338.253 97.9678ZM345.2 58.1055C347.409 58.1055 349.2 59.8963 349.2 62.1055C349.2 64.3144 347.409 66.1055 345.2 66.1055C342.991 66.1055 341.2 64.3144 341.2 62.1055C341.2 59.8963 342.991 58.1055 345.2 58.1055Z" fill="#25DD65"/>
</svg>
