<svg width="400" height="400" viewBox="0 0 400 400" fill="none" xmlns="http://www.w3.org/2000/svg">
<path d="M125.088 63.8867C121.245 62.6719 117.617 66.2705 118.801 70.1232L167.818 229.597C167.944 230.006 168.116 230.382 168.323 230.725C172.671 242.941 179.711 254.417 189.448 264.233C224.842 299.913 282.46 300.145 318.14 264.75C353.82 229.356 354.052 171.738 318.658 136.058C308.857 126.178 297.351 119.016 285.08 114.576C284.795 114.42 284.489 114.289 284.162 114.185L125.088 63.8867Z" fill="#FF0000"/>
<path d="M139.462 78.419C135.619 77.2029 131.989 80.8027 133.175 84.6562L175.749 223.033C175.855 223.377 175.993 223.698 176.156 223.996C179.955 235.114 186.266 245.567 195.096 254.469C226.267 285.891 277.009 286.096 308.432 254.925C339.855 223.754 340.059 173.011 308.888 141.589C298.571 131.189 286.11 124.209 272.916 120.655L139.462 78.419Z" fill="white"/>
<path d="M244.564 242.829L259.215 278.16C260.609 278.071 262.001 277.947 263.39 277.785L248.26 241.298L244.564 242.829ZM269.412 212.356L268.145 213.903L313.947 251.46C314.839 250.46 315.701 249.443 316.534 248.41L270.681 210.81L269.412 212.356ZM177.608 222.454L222.878 234.991L223.946 231.136L176.212 217.916L177.608 222.454ZM275.544 180.99L333.412 186.826C333.217 185.458 332.988 184.095 332.723 182.736L275.945 177.011L275.544 180.99ZM157.416 156.825L189.71 168.937L191.114 165.19L155.93 151.996L157.416 156.825ZM288.508 163.816L292.316 162.597L279.341 122.114C277.904 121.638 276.457 121.202 275 120.81L274.69 120.711L288.508 163.816ZM220.924 131.687L224.597 130.103L211.986 100.866L206.94 99.2695L220.924 131.687ZM163.362 115.387L139.535 98.707L141.449 104.93L168.266 123.702L169.412 122.063L171.155 121.083L148.479 80.7676L142.896 79L163.362 115.387Z" fill="black"/>
<path d="M163.297 103.421C159.45 102.2 155.816 105.805 157.007 109.661L189.565 215.143C192.243 226.346 197.932 236.978 206.637 245.753C231.925 271.246 273.092 271.412 298.585 246.123C324.077 220.834 324.243 179.668 298.954 154.175C290.42 145.572 280.077 139.853 269.139 137.024L163.297 103.421Z" fill="#2A2A2A"/>
<circle cx="39.3959" cy="39.3959" r="39.3959" transform="matrix(-0.709945 0.704257 0.704257 0.709945 254.254 144.988)" fill="#FCDF0C"/>
<circle cx="24.7046" cy="24.7046" r="24.7046" transform="matrix(-0.709945 0.704257 0.704257 0.709945 253.947 166)" fill="#FF7D13"/>
<mask id="path-7-inside-1_271_150" fill="white">
<path d="M175.938 117.935C172.106 116.737 168.497 120.317 169.663 124.159L197.549 215.977C199.98 225.522 204.913 234.564 212.351 242.062C234.579 264.469 270.763 264.615 293.171 242.387C315.578 220.159 315.724 183.974 293.496 161.567C286.037 154.047 277.006 149.034 267.452 146.533L175.938 117.935Z"/>
</mask>
<path d="M175.938 117.935L177.131 114.117L177.131 114.117L175.938 117.935ZM169.663 124.159L165.836 125.322L165.836 125.322L169.663 124.159ZM197.549 215.977L201.376 214.815L201.403 214.902L201.425 214.99L197.549 215.977ZM212.351 242.062L209.512 244.879L209.512 244.879L212.351 242.062ZM293.171 242.387L295.988 245.227L295.988 245.227L293.171 242.387ZM293.496 161.567L296.336 158.75L296.336 158.75L293.496 161.567ZM267.452 146.533L266.439 150.402L266.348 150.378L266.259 150.351L267.452 146.533ZM175.938 117.935L174.745 121.753C173.979 121.513 173.257 122.229 173.491 122.997L169.663 124.159L165.836 125.322C163.736 118.406 170.233 111.961 177.131 114.117L175.938 117.935ZM169.663 124.159L173.491 122.997L201.376 214.815L197.549 215.977L193.721 217.14L165.836 125.322L169.663 124.159ZM197.549 215.977L201.425 214.99C203.685 223.862 208.269 232.267 215.191 239.245L212.351 242.062L209.512 244.879C201.557 236.86 196.276 227.182 193.673 216.965L197.549 215.977ZM212.351 242.062L215.191 239.245C235.863 260.084 269.515 260.219 290.354 239.547L293.171 242.387L295.988 245.227C272.012 269.01 233.295 268.855 209.512 244.879L212.351 242.062ZM293.171 242.387L290.354 239.547C311.193 218.875 311.329 185.223 290.657 164.384L293.496 161.567L296.336 158.75C320.12 182.726 319.964 221.443 295.988 245.227L293.171 242.387ZM293.496 161.567L290.657 164.384C283.715 157.386 275.32 152.727 266.439 150.402L267.452 146.533L268.465 142.663C278.693 145.341 288.36 150.709 296.336 158.75L293.496 161.567ZM267.452 146.533L266.259 150.351L174.745 121.753L175.938 117.935L177.131 114.117L268.645 142.715L267.452 146.533Z" fill="#FF0000" mask="url(#path-7-inside-1_271_150)"/>
<path d="M332.656 259.704C315.24 305.228 213.797 338.372 166.933 255.852C134.493 192.56 118.435 128.781 101.397 72.2695" stroke="#FF1E1E" stroke-width="3" stroke-linecap="round"/>
<path d="M334.043 259.981L333.944 260.24C331.027 267.865 325.853 275.099 319.067 281.517L285.311 342.76C284.912 343.485 285.176 344.397 285.9 344.797C286.626 345.197 287.538 344.932 287.938 344.207L328.212 271.143L310.155 338.529C309.941 339.329 310.416 340.152 311.216 340.366C312.016 340.58 312.838 340.105 313.053 339.306L334.303 260.001C334.304 259.996 334.305 259.99 334.307 259.985C334.309 259.976 334.311 259.966 334.313 259.957C334.314 259.954 334.315 259.952 334.315 259.949C334.317 259.942 334.319 259.935 334.32 259.928L334.321 259.926C334.325 259.909 334.327 259.892 334.33 259.875C334.332 259.866 334.335 259.857 334.336 259.849C334.338 259.835 334.34 259.821 334.342 259.808C334.342 259.803 334.342 259.798 334.343 259.793C334.343 259.79 334.343 259.787 334.344 259.784C334.345 259.775 334.347 259.766 334.348 259.758C334.349 259.747 334.349 259.735 334.35 259.725C334.351 259.707 334.352 259.689 334.353 259.671C334.353 259.666 334.353 259.661 334.354 259.656V259.552C334.353 259.538 334.351 259.525 334.351 259.512C334.35 259.506 334.35 259.5 334.35 259.494C334.349 259.49 334.349 259.486 334.349 259.481C334.348 259.479 334.348 259.477 334.348 259.475C334.347 259.466 334.347 259.458 334.346 259.45C334.343 259.423 334.339 259.397 334.335 259.37C334.333 259.355 334.329 259.34 334.326 259.325C334.32 259.293 334.313 259.261 334.305 259.229C334.304 259.228 334.304 259.226 334.304 259.225C334.3 259.212 334.296 259.2 334.293 259.188C334.291 259.182 334.289 259.176 334.287 259.17C334.28 259.147 334.273 259.125 334.265 259.102C334.26 259.089 334.255 259.076 334.25 259.062C334.247 259.055 334.244 259.047 334.241 259.039C334.24 259.035 334.238 259.032 334.236 259.028C334.235 259.024 334.233 259.02 334.231 259.017C334.229 259.012 334.228 259.007 334.226 259.003C334.221 258.993 334.217 258.983 334.213 258.974C334.212 258.971 334.21 258.969 334.209 258.967L334.188 258.924C334.185 258.919 334.183 258.915 334.181 258.911C334.179 258.907 334.176 258.903 334.174 258.899C334.173 258.898 334.173 258.897 334.173 258.896C334.17 258.891 334.168 258.886 334.165 258.881C334.16 258.871 334.154 258.863 334.148 258.853C334.142 258.843 334.136 258.832 334.13 258.822C334.128 258.82 334.126 258.818 334.125 258.815C334.121 258.808 334.117 258.801 334.112 258.794C334.111 258.792 334.109 258.79 334.107 258.788L334.096 258.769C334.092 258.764 334.089 258.759 334.085 258.754L334.075 258.741C334.071 258.736 334.068 258.73 334.064 258.725C334.061 258.72 334.058 258.716 334.055 258.712L334.043 258.696V259.981ZM318.407 282.133C315.418 284.895 312.129 287.5 308.593 289.914C294.98 307.012 281.413 321.28 261.001 340.308C260.396 340.872 260.362 341.821 260.926 342.427C261.491 343.033 262.441 343.066 263.047 342.502C287.283 319.91 301.95 303.954 318.407 282.133ZM301.352 294.395C298.147 296.19 294.787 297.84 291.301 299.323C275.271 313.062 258.476 324.308 235.275 337.616C234.558 338.029 234.309 338.945 234.721 339.663C235.133 340.381 236.05 340.63 236.769 340.218C264.058 324.564 282.591 311.71 301.352 294.395ZM280.814 303.154C277.311 304.233 273.718 305.144 270.061 305.871C253.077 315.082 234.017 322.555 209.149 330.403C208.36 330.653 207.922 331.496 208.171 332.286C208.42 333.076 209.263 333.514 210.053 333.265C238.227 324.373 259.13 315.915 278.034 304.817C278.966 304.27 279.892 303.714 280.814 303.154ZM242.086 307.615C224.587 313.102 205.589 316.917 182.892 319.985C182.071 320.096 181.496 320.851 181.606 321.672C181.717 322.492 182.473 323.07 183.294 322.959C209.478 319.419 230.873 314.877 250.762 307.895C247.88 307.927 244.985 307.836 242.086 307.615ZM213.887 301.01C197.302 302.518 179.257 302.567 158.297 301.454C157.47 301.411 156.764 302.045 156.72 302.872C156.676 303.699 157.312 304.406 158.139 304.45C181.797 305.706 201.843 305.495 220.316 303.363C218.159 302.665 216.014 301.882 213.887 301.01ZM135.802 280.955C134.99 280.792 134.198 281.317 134.034 282.129C133.871 282.941 134.398 283.732 135.21 283.895C158.483 288.581 178.611 291.255 197.166 291.981C195.682 290.965 194.214 289.895 192.764 288.77C175.651 287.821 157.072 285.238 135.802 280.955ZM120.341 257.843C119.554 257.583 118.705 258.01 118.445 258.797C118.186 259.583 118.613 260.431 119.399 260.691C141.631 268.036 161.304 273.366 179.86 276.709C178.81 275.536 177.774 274.327 176.754 273.079C159.437 269.743 141.028 264.677 120.341 257.843ZM111.488 233.38C110.752 233.002 109.847 233.293 109.469 234.029C109.09 234.766 109.381 235.67 110.117 236.049C124.431 243.404 143.101 250.064 164.838 255.262C164.241 254.089 163.649 252.916 163.063 251.743C142.609 246.693 125.038 240.342 111.488 233.38ZM101.059 204.023C100.342 203.609 99.424 203.853 99.0088 204.569C98.594 205.286 98.8385 206.204 99.5547 206.619C118.739 217.734 136.588 226.551 154.406 233.568C153.81 232.256 153.219 230.944 152.635 229.632C135.896 222.858 119.074 214.462 101.059 204.023ZM82.3418 175.05C81.626 174.634 80.7085 174.877 80.292 175.593C79.8758 176.309 80.1184 177.227 80.834 177.643C104.438 191.381 125.395 202.358 144.848 211.316C144.297 209.96 143.752 208.605 143.212 207.25C124.659 198.581 104.697 188.06 82.3418 175.05ZM70.4717 137.94C69.8239 137.424 68.8796 137.53 68.3633 138.178C67.8475 138.825 67.9541 139.77 68.6016 140.286C90.6526 157.859 112.054 172.316 134.8 185.054C134.28 183.613 133.767 182.174 133.258 180.736C111.755 168.485 91.4096 154.626 70.4717 137.94ZM61.6016 98.4921C60.9771 97.9478 60.0287 98.0123 59.4844 98.6366C58.9406 99.2609 59.0052 100.209 59.6289 100.753C82.4369 120.638 103.491 137.412 123.606 151.981C123.093 150.372 122.587 148.765 122.082 147.162C103.029 133.205 83.1007 117.236 61.6016 98.4921ZM55.9482 58.6669C55.4312 58.02 54.487 57.9147 53.8398 58.4316C53.1936 58.9487 53.088 59.892 53.6045 60.539C71.1522 82.5092 90.1295 102.194 114.553 122.525C114.033 120.782 113.517 119.042 113.004 117.308C90.3745 98.1164 72.518 79.4126 55.9482 58.6669Z" fill="#FF1E1E"/>
<path d="M287.709 340.174C285.5 340.174 283.709 341.965 283.709 344.174C283.709 346.383 285.5 348.174 287.709 348.174C289.918 348.174 291.709 346.383 291.709 344.174C291.709 341.965 289.918 340.174 287.709 340.174ZM260.783 339.669C258.574 339.669 256.783 341.46 256.783 343.669C256.783 345.878 258.574 347.669 260.783 347.669C262.992 347.669 264.783 345.878 264.783 343.669C264.783 341.46 262.992 339.669 260.783 339.669ZM311.943 337.055C309.734 337.055 307.943 338.846 307.943 341.055C307.943 343.264 309.734 345.054 311.943 345.055C314.152 345.055 315.943 343.264 315.943 341.055C315.943 338.846 314.152 337.055 311.943 337.055ZM233.856 335.669C231.648 335.669 229.856 337.46 229.856 339.669C229.856 341.878 231.648 343.669 233.856 343.669C236.066 343.669 237.856 341.878 237.856 339.669C237.856 337.46 236.066 335.669 233.856 335.669ZM207.986 327.669C205.777 327.669 203.986 329.46 203.986 331.669C203.986 333.878 205.777 335.669 207.986 335.669C210.195 335.669 211.986 333.878 211.986 331.669C211.986 329.46 210.195 327.669 207.986 327.669ZM180.585 316.603C178.376 316.603 176.585 318.393 176.585 320.603C176.585 322.812 178.376 324.603 180.585 324.603C182.794 324.603 184.585 322.812 184.585 320.603C184.585 318.393 182.794 316.603 180.585 316.603ZM156.147 298.406C153.939 298.407 152.147 300.197 152.147 302.406C152.148 304.615 153.939 306.406 156.147 306.406C158.356 306.406 160.147 304.615 160.147 302.406C160.147 300.197 158.357 298.406 156.147 298.406ZM132.162 277.466C129.953 277.466 128.162 279.257 128.162 281.466C128.162 283.675 129.953 285.466 132.162 285.466C134.371 285.466 136.162 283.675 136.162 281.466C136.162 279.257 134.371 277.466 132.162 277.466ZM116.409 253.396C114.2 253.396 112.409 255.187 112.409 257.396C112.409 259.604 114.2 261.395 116.409 261.396C118.618 261.396 120.409 259.604 120.409 257.396C120.409 255.186 118.618 253.396 116.409 253.396ZM108.409 229.234C106.2 229.235 104.409 231.025 104.409 233.234C104.409 235.443 106.2 237.234 108.409 237.234C110.618 237.234 112.409 235.444 112.409 233.234C112.409 231.025 110.618 229.234 108.409 229.234ZM97.3975 199.769C95.1883 199.769 93.3975 201.559 93.3975 203.769C93.3975 205.978 95.1883 207.769 97.3975 207.769C99.6066 207.769 101.397 205.978 101.397 203.769C101.397 201.559 99.6066 199.769 97.3975 199.769ZM81.7734 174.653C79.5645 174.654 77.7734 176.444 77.7734 178.653C77.7734 180.862 79.5645 182.653 81.7734 182.653C83.9826 182.653 85.7734 180.862 85.7734 178.653C85.7734 176.444 83.9826 174.653 81.7734 174.653ZM68.2686 137.033C66.0596 137.033 64.2686 138.824 64.2686 141.033C64.2686 143.242 66.0596 145.033 68.2686 145.033C70.4777 145.033 72.2686 143.242 72.2686 141.033C72.2686 138.824 70.4777 137.033 68.2686 137.033ZM61.7461 97.9668C59.537 97.9668 57.7461 99.7577 57.7461 101.967C57.7464 104.176 59.5371 105.967 61.7461 105.967C63.9551 105.967 65.7458 104.176 65.7461 101.967C65.7461 99.7577 63.9552 97.9668 61.7461 97.9668ZM54.7988 58.1035C52.5897 58.1035 50.7988 59.8954 50.7988 62.1045C50.7991 64.3134 52.5899 66.1045 54.7988 66.1045C57.0078 66.1045 58.7986 64.3134 58.7988 62.1045C58.7988 59.8954 57.008 58.1035 54.7988 58.1035Z" fill="#25DD65"/>
</svg>
