<svg width="400" height="400" viewBox="0 0 400 400" fill="none" xmlns="http://www.w3.org/2000/svg">
<path d="M106.061 99.7637C101.962 96.7309 96.1168 100.925 97.7793 105.745L147.618 250.245C147.889 251.03 148.322 251.69 148.859 252.216C151.829 269.811 160.069 286.694 173.591 300.324C208.438 335.454 265.165 335.682 300.294 300.834C335.423 265.986 335.651 209.257 300.804 174.127C282.509 155.684 258.183 146.86 234.118 147.682C213.887 146.402 186.086 143.261 165.945 135.564C145.783 127.858 121.192 110.962 106.061 99.7637Z" fill="#FF0000"/>
<ellipse cx="78.9037" cy="78.9037" rx="78.9037" ry="78.9037" transform="matrix(-0.709936 0.704266 0.704249 0.709953 238.35 124.926)" fill="white"/>
<ellipse cx="66.1905" cy="66.1905" rx="66.1905" ry="66.1905" transform="matrix(-0.709936 0.704266 0.704249 0.709953 238.275 142.902)" fill="#0B0704"/>
<ellipse cx="31.4254" cy="31.4254" rx="31.4254" ry="31.4254" transform="matrix(-0.709936 0.704266 0.704249 0.709953 228.371 176.793)" fill="white"/>
</svg>
