<svg width="400" height="400" viewBox="0 0 400 400" fill="none" xmlns="http://www.w3.org/2000/svg">
<path d="M67.5537 84.3247C51.9796 82.9021 36.8741 92.4737 24.9834 109.134C26.3222 109.672 27.654 110.233 28.9775 110.819C29.0747 110.841 29.1728 110.865 29.2705 110.893L242.947 173.102C264.113 178.039 284.267 188.559 301.078 204.708C332.08 234.488 344.411 276.395 337.776 315.814C351.144 302.755 363.213 284.338 371.61 262.484C391.299 211.245 383.356 160.522 353.867 149.191C341.901 144.593 328.227 147.189 314.885 155.32C311.545 130.017 300.224 110.998 282.678 105.735C269.049 101.647 253.989 106.555 240.11 117.988C231.461 101.306 218.992 90.4975 204.357 89.1606C191.309 87.9687 178.589 94.4946 167.813 106.441C159.488 93.6041 148.517 85.4726 135.951 84.3247C122.151 83.064 108.718 90.4364 97.5635 103.724C89.4908 92.4618 79.209 85.3894 67.5537 84.3247Z" fill="#25DD65"/>
<path d="M54.5401 102.846C41.3619 101.803 28.5119 107.423 17.5743 117.751C28.9086 119.077 40.0847 122.014 50.7013 126.572C50.9646 126.605 51.2313 126.656 51.4991 126.731L248.113 181.728C267.682 186.112 286.315 195.455 301.858 209.799C329.233 235.065 340.859 270.161 336.497 303.768C348.113 292.615 358.48 278.005 365.984 261.072C386.152 215.566 378.014 170.518 347.81 160.455C335.553 156.371 321.546 158.677 307.88 165.898C304.459 143.426 292.864 126.535 274.891 121.861C260.931 118.23 245.505 122.59 231.289 132.744C222.43 117.928 209.657 108.328 194.667 107.141C181.302 106.083 168.273 111.878 157.235 122.488C148.707 111.087 137.47 103.866 124.599 102.846C110.463 101.727 96.7034 108.275 85.2784 120.076C77.0096 110.074 66.4786 103.792 54.5401 102.846Z" fill="#0049DB"/>
<path d="M335.397 268.661C335.726 270.285 336.017 271.914 336.27 273.548L364.034 219.228L361.362 217.862L335.397 268.661ZM333.775 261.801C334.364 263.972 334.884 266.157 335.334 268.353L352.314 195.165L349.393 194.488L333.775 261.801ZM331.067 253.245C332.016 255.858 332.862 258.499 333.602 261.161L338.211 183.985L335.216 183.808L331.067 253.245ZM316.007 172.766L324.102 237.907C325.562 240.555 326.905 243.249 328.128 245.98L318.982 172.395L316.007 172.766ZM287.239 152.213L308.107 215.879C309.876 217.776 311.563 219.721 313.173 221.704L290.09 151.277L287.239 152.213ZM263.528 143.778L290.883 200.75C292.659 202.022 294.406 203.349 296.122 204.732L266.232 142.479L263.528 143.778ZM240.218 139.634L271.753 189.649C273.479 190.442 275.189 191.278 276.881 192.158L242.756 138.034L240.218 139.634ZM209.191 125.614L253.578 183.052C255.226 183.501 256.865 183.987 258.495 184.509L211.565 123.779L209.191 125.614ZM186.229 123.057L236.311 178.389L241.729 179.904L188.454 121.044L186.229 123.057ZM170.478 129.374L215.724 172.63L221.86 174.347L172.551 127.206L170.478 129.374ZM138.18 123.636L188.261 164.947L195.395 166.943L140.089 121.32L138.18 123.636ZM110.372 118.941L162.781 157.82L170.863 160.081L112.159 116.532L110.372 118.941ZM95.0967 125.689L129.363 148.473L138.717 151.089L96.7588 123.191L95.0967 125.689ZM57.9238 116.133L95.4277 138.98L106.09 141.963L59.4844 113.57L57.9238 116.133ZM40.8779 117.802L61.4463 129.475L73.4326 132.827L42.3594 115.192L40.8779 117.802Z" fill="#FF1E1E"/>
<path d="M359.999 215.988C357.771 215.988 355.965 217.794 355.965 220.022C355.965 222.25 357.771 224.057 359.999 224.057C362.227 224.057 364.034 222.251 364.034 220.022C364.034 217.794 362.227 215.988 359.999 215.988ZM353.342 194.601C352.765 192.449 350.553 191.171 348.4 191.748C346.248 192.325 344.97 194.537 345.547 196.689C346.124 198.841 348.336 200.119 350.488 199.543C352.641 198.966 353.918 196.754 353.342 194.601ZM338.526 180.794C337.412 178.864 334.944 178.203 333.015 179.317C331.085 180.431 330.424 182.898 331.538 184.828C332.652 186.758 335.12 187.42 337.05 186.305C338.979 185.191 339.64 182.723 338.526 180.794ZM319.072 171.233C317.497 169.658 314.942 169.658 313.366 171.233C311.791 172.809 311.791 175.364 313.366 176.939C314.942 178.515 317.497 178.515 319.072 176.939C320.648 175.364 320.648 172.809 319.072 171.233ZM290.416 149.984C288.486 148.87 286.019 149.531 284.905 151.461C283.791 153.391 284.452 155.858 286.382 156.972C288.312 158.087 290.779 157.425 291.894 155.495C293.007 153.565 292.346 151.098 290.416 149.984ZM265.348 139.827C263.195 139.25 260.983 140.528 260.406 142.68C259.83 144.833 261.107 147.045 263.259 147.622C265.411 148.199 267.623 146.921 268.2 144.768C268.777 142.616 267.5 140.404 265.348 139.827ZM242.783 136.974C240.631 136.398 238.419 137.675 237.842 139.827C237.265 141.979 238.543 144.192 240.695 144.768C242.848 145.345 245.06 144.068 245.637 141.916C246.213 139.763 244.936 137.551 242.783 136.974ZM172.699 124.74C170.547 124.163 168.335 125.441 167.758 127.594C167.181 129.746 168.458 131.958 170.61 132.535C172.763 133.112 174.975 131.834 175.552 129.681C176.128 127.529 174.851 125.317 172.699 124.74ZM212.385 122.652C210.232 122.075 208.02 123.353 207.443 125.505C206.867 127.657 208.144 129.869 210.296 130.446C212.448 131.023 214.661 129.746 215.237 127.594C215.814 125.441 214.537 123.229 212.385 122.652ZM96.625 120.433C94.4727 119.857 92.2604 121.134 91.6836 123.286C91.1069 125.438 92.3848 127.651 94.5371 128.227C96.6894 128.804 98.9018 127.527 99.4785 125.375C100.055 123.222 98.7774 121.01 96.625 120.433ZM188.762 119.241C186.609 118.664 184.397 119.941 183.82 122.094C183.244 124.246 184.521 126.458 186.674 127.035C188.826 127.611 191.039 126.335 191.615 124.182C192.192 122.03 190.914 119.818 188.762 119.241ZM139.562 117.78C137.409 117.204 135.197 118.481 134.62 120.634C134.044 122.786 135.321 124.998 137.474 125.575C139.626 126.151 141.838 124.874 142.415 122.721C142.991 120.569 141.714 118.357 139.562 117.78ZM113.913 114.928C111.761 114.351 109.549 115.628 108.972 117.78C108.395 119.932 109.672 122.145 111.824 122.721C113.977 123.298 116.189 122.021 116.766 119.869C117.342 117.717 116.065 115.504 113.913 114.928ZM61.5977 111.599C59.4454 111.023 57.2331 112.3 56.6562 114.452C56.0795 116.604 57.3565 118.817 59.5088 119.393C61.6611 119.97 63.8734 118.693 64.4502 116.541C65.0269 114.389 63.7498 112.176 61.5977 111.599ZM41.7773 111.599C39.6251 111.023 37.4127 112.3 36.8359 114.452C36.2592 116.604 37.5371 118.817 39.6895 119.393C41.8417 119.97 44.0541 118.693 44.6309 116.541C45.2076 114.388 43.9297 112.176 41.7773 111.599Z" fill="#FCDF0C"/>
</svg>
