<svg width="400" height="400" viewBox="0 0 400 400" fill="none" xmlns="http://www.w3.org/2000/svg">
<path d="M67.3222 84.3247C51.7481 82.9021 36.6427 92.4737 24.7519 109.134C26.0907 109.672 27.4225 110.233 28.7461 110.819C28.8433 110.841 28.9414 110.865 29.039 110.893L242.716 173.102C263.881 178.039 284.035 188.558 300.847 204.707C331.849 234.487 344.179 276.395 337.545 315.814C350.913 302.756 362.981 284.338 371.379 262.484C391.068 211.245 383.124 160.522 353.636 149.191C341.67 144.593 327.995 147.189 314.653 155.32C311.314 130.017 299.993 110.998 282.446 105.735C268.817 101.647 253.757 106.555 239.879 117.988C231.23 101.306 218.76 90.4975 204.126 89.1606C191.077 87.9687 178.358 94.4946 167.582 106.441C159.256 93.6041 148.286 85.4726 135.72 84.3247C121.919 83.064 108.486 90.4363 97.332 103.724C89.2594 92.4618 78.9775 85.3894 67.3222 84.3247Z" fill="#009434"/>
<path d="M54.7716 99.6001C41.5933 98.5564 28.7433 104.177 17.8058 114.504C29.1398 115.831 40.3153 118.768 50.9317 123.326C51.1952 123.359 51.4626 123.41 51.7306 123.485L248.344 178.482C267.912 182.866 286.546 192.209 302.088 206.553C329.464 231.819 341.09 266.914 336.729 300.521C348.344 289.368 358.711 274.759 366.215 257.826C386.382 212.32 378.245 167.272 348.04 157.209C335.784 153.125 321.777 155.43 308.111 162.651C304.691 140.18 293.095 123.29 275.122 118.616C261.162 114.985 245.736 119.343 231.52 129.498C222.66 114.683 209.889 105.082 194.899 103.895C181.533 102.836 168.503 108.632 157.466 119.242C148.938 107.842 137.702 100.62 124.83 99.6001C110.694 98.4805 96.9349 105.029 85.5099 116.83C77.2412 106.827 66.71 100.546 54.7716 99.6001Z" fill="#FFDE25"/>
<path d="M135.63 136.69C128.785 136.114 122.046 137.816 115.727 141.383L248.339 178.478C267.907 182.862 286.541 192.205 302.083 206.55C323.752 226.549 335.551 252.706 337.367 279.409C337.605 278.858 337.841 278.305 338.073 277.749C354.987 237.18 348.163 197.02 322.831 188.049C312.552 184.408 300.804 186.462 289.343 192.899C286.474 172.866 276.749 157.81 261.676 153.642C249.968 150.406 237.03 154.291 225.107 163.344C217.677 150.136 206.965 141.578 194.393 140.519C183.184 139.576 172.257 144.742 163 154.201C155.848 144.038 146.424 137.599 135.63 136.69Z" fill="#FF0101"/>
<path d="M334.628 263.424C334.966 265.028 335.266 266.638 335.53 268.252L362.813 214.873L360.142 213.508L334.628 263.424ZM332.842 256.207C333.441 258.316 333.975 260.439 334.443 262.573L351.094 190.811L348.172 190.134L332.842 256.207ZM329.934 247.425C330.881 249.922 331.734 252.445 332.489 254.989L336.99 179.631L333.995 179.453L329.934 247.425ZM314.786 168.411L322.701 232.107C324.133 234.612 325.456 237.159 326.672 239.742L317.762 168.04L314.786 168.411ZM286.019 147.858L306.552 210.502C308.287 212.318 309.948 214.177 311.535 216.075L288.869 146.923L286.019 147.858ZM262.308 139.424L289.337 195.718C291.089 196.946 292.815 198.227 294.51 199.562L265.012 138.125L262.308 139.424ZM241.424 139.259L270.201 184.857C271.91 185.623 273.603 186.431 275.279 187.282L243.961 137.656L241.424 139.259ZM212.062 126.376L252.308 178.517C253.941 178.952 255.568 179.42 257.185 179.926L214.438 124.543L212.062 126.376ZM189.699 123.728L235.002 173.832L240.416 175.347L191.924 121.715L189.699 123.728ZM169.257 125.02L214.24 168.024L220.377 169.741L171.33 122.852L169.257 125.02ZM136.959 119.281L186.714 160.324L193.849 162.32L138.868 116.966L136.959 119.281ZM112.691 117.148L161.285 153.212L169.363 155.472L114.479 114.739L112.691 117.148ZM93.876 121.335L127.683 143.812L137.036 146.429L95.5381 118.837L93.876 121.335ZM61.8076 114.817L93.8584 134.352L104.515 137.332L63.3691 112.255L61.8076 114.817ZM39.6572 113.447L59.6113 124.771L71.5977 128.124L41.1387 110.838L39.6572 113.447Z" fill="#FF1E1E"/>
<path d="M361.5 213.742C359.272 213.742 357.466 215.548 357.466 217.776C357.466 220.004 359.272 221.811 361.5 221.811C363.728 221.811 365.535 220.004 365.535 217.776C365.535 215.548 363.728 213.742 361.5 213.742ZM354.843 192.355C354.266 190.203 352.054 188.925 349.901 189.502C347.749 190.078 346.471 192.291 347.048 194.443C347.625 196.595 349.837 197.873 351.989 197.297C354.142 196.72 355.419 194.508 354.843 192.355ZM340.027 178.548C338.913 176.618 336.445 175.957 334.516 177.071C332.586 178.185 331.925 180.652 333.039 182.582C334.153 184.512 336.621 185.174 338.551 184.059C340.48 182.945 341.141 180.477 340.027 178.548ZM320.573 168.987C318.998 167.412 316.443 167.412 314.867 168.987C313.292 170.563 313.292 173.118 314.867 174.693C316.443 176.269 318.998 176.269 320.573 174.693C322.149 173.118 322.149 170.563 320.573 168.987ZM291.917 147.738C289.987 146.624 287.52 147.285 286.406 149.215C285.292 151.144 285.953 153.612 287.883 154.726C289.813 155.84 292.28 155.179 293.395 153.249C294.508 151.319 293.847 148.852 291.917 147.738ZM266.849 137.581C264.696 137.004 262.484 138.282 261.907 140.434C261.331 142.587 262.607 144.799 264.76 145.376C266.912 145.953 269.124 144.675 269.701 142.522C270.278 140.37 269.001 138.158 266.849 137.581ZM244.284 134.728C242.132 134.152 239.92 135.429 239.343 137.581C238.766 139.733 240.044 141.946 242.196 142.522C244.349 143.099 246.561 141.822 247.138 139.67C247.714 137.517 246.437 135.305 244.284 134.728ZM174.2 122.494C172.048 121.917 169.836 123.195 169.259 125.347C168.682 127.5 169.959 129.712 172.111 130.289C174.264 130.866 176.476 129.588 177.053 127.435C177.629 125.283 176.352 123.071 174.2 122.494ZM213.886 120.406C211.733 119.829 209.521 121.106 208.944 123.259C208.368 125.411 209.645 127.623 211.797 128.2C213.949 128.777 216.161 127.5 216.738 125.347C217.315 123.195 216.038 120.983 213.886 120.406ZM98.126 118.187C95.9737 117.611 93.7613 118.888 93.1846 121.04C92.6078 123.192 93.8857 125.405 96.0381 125.981C98.1903 126.558 100.403 125.281 100.979 123.129C101.556 120.976 100.278 118.764 98.126 118.187ZM190.263 116.995C188.11 116.418 185.898 117.695 185.321 119.847C184.745 122 186.022 124.212 188.175 124.789C190.327 125.365 192.539 124.089 193.116 121.936C193.693 119.784 192.415 117.572 190.263 116.995ZM141.062 115.534C138.91 114.957 136.698 116.235 136.121 118.388C135.545 120.54 136.822 122.752 138.975 123.329C141.127 123.905 143.339 122.628 143.916 120.475C144.492 118.323 143.215 116.111 141.062 115.534ZM115.414 112.681C113.262 112.105 111.049 113.382 110.473 115.534C109.896 117.686 111.173 119.899 113.325 120.475C115.477 121.052 117.69 119.775 118.267 117.623C118.843 115.471 117.566 113.258 115.414 112.681ZM63.0986 109.353C60.9464 108.777 58.7341 110.054 58.1572 112.206C57.5805 114.358 58.8575 116.57 61.0098 117.147C63.1621 117.724 65.3744 116.447 65.9512 114.295C66.5279 112.142 65.2508 109.93 63.0986 109.353ZM43.2783 109.353C41.1261 108.777 38.9137 110.054 38.3369 112.206C37.7602 114.358 39.0381 116.571 41.1904 117.147C43.3427 117.724 45.5551 116.447 46.1318 114.295C46.7086 112.142 45.4307 109.93 43.2783 109.353Z" fill="#140CFC"/>
</svg>
