<svg width="400" height="400" viewBox="0 0 400 400" fill="none" xmlns="http://www.w3.org/2000/svg">
<path d="M67.0908 84.3247C51.5168 82.9021 36.4113 92.4737 24.5205 109.134C25.8594 109.672 27.191 110.234 28.5147 110.82C28.6119 110.842 28.7099 110.866 28.8076 110.894L242.484 173.102C263.65 178.039 283.804 188.559 300.615 204.707C331.618 234.488 343.948 276.396 337.314 315.815C350.681 302.757 362.75 284.339 371.147 262.485C390.836 211.246 382.893 160.523 353.404 149.192C341.438 144.594 327.764 147.189 314.422 155.32C311.082 130.017 299.761 110.998 282.215 105.735C268.586 101.647 253.526 106.555 239.647 117.989C230.998 101.307 218.529 90.4985 203.895 89.1616C190.846 87.9697 178.126 94.4948 167.351 106.441C159.025 93.6043 148.054 85.4736 135.488 84.3257C121.688 83.065 108.255 90.4371 97.1006 103.725C89.0279 92.4626 78.7462 85.3894 67.0908 84.3247Z" fill="white"/>
<path d="M54.54 99.6001C41.3615 98.5564 28.5109 104.177 17.5732 114.504C28.9076 115.831 40.0834 118.768 50.7002 123.326C50.9636 123.359 51.231 123.41 51.499 123.485L248.112 178.483C267.681 182.867 286.314 192.21 301.856 206.554C329.232 231.82 340.858 266.914 336.497 300.521C348.112 289.368 358.479 274.759 365.983 257.826C386.15 212.32 378.014 167.273 347.81 157.21C335.553 153.126 321.546 155.43 307.88 162.651C304.459 140.18 292.863 123.29 274.891 118.616C260.93 114.985 245.505 119.345 231.289 129.499C222.43 114.683 209.657 105.083 194.667 103.896C181.301 102.837 168.272 108.633 157.234 119.243C148.706 107.842 137.47 100.621 124.599 99.6011C110.463 98.4815 96.7033 105.029 85.2783 116.83C77.0096 106.828 66.4783 100.546 54.54 99.6001Z" fill="#57B76D"/>
<path d="M82.2549 121.397C75.2298 120.806 68.317 122.617 61.8555 126.378L248.106 178.477C267.675 182.861 286.308 192.204 301.851 206.549C322.608 225.707 334.308 250.517 336.852 276.044C339.262 271.74 341.477 267.2 343.455 262.456C360.369 221.888 353.545 181.727 328.213 172.756C317.934 169.115 306.186 171.169 294.725 177.606C291.855 157.573 282.13 142.517 267.058 138.349C255.349 135.112 242.412 138.998 230.489 148.051C223.059 134.843 212.347 126.285 199.775 125.226C188.566 124.283 177.639 129.449 168.382 138.908C161.23 128.745 151.806 122.306 141.012 121.397C129.156 120.399 117.616 126.237 108.034 136.758C101.099 127.841 92.2671 122.24 82.2549 121.397Z" fill="#01509E"/>
</svg>
