<svg width="400" height="400" viewBox="0 0 400 400" fill="none" xmlns="http://www.w3.org/2000/svg">
<path d="M216.811 220.88C104.993 218.15 45.3867 249.448 34.0645 271.543C57.0577 184.005 128.997 145.285 162.093 136.867C152.512 141.426 140.941 152.092 146.004 158.694C149.463 163.204 174.881 170.208 192.444 150.545C211.568 129.134 231.768 129.152 247.009 128.451C239.171 133.01 217.252 156.805 253.732 161.466C294.306 166.649 336.717 143.532 351.523 128.451C409.005 208.415 280.234 222.429 216.811 220.88Z" fill="#00938F"/>
<path d="M216.811 225.844C104.993 223.381 45.3867 251.615 34.0645 271.548C57.0577 192.579 128.997 157.649 162.093 150.055C152.512 154.168 140.941 163.79 146.004 169.746C149.463 173.814 174.881 180.133 192.444 162.394C211.568 143.079 231.768 143.095 247.009 142.463C239.171 146.576 217.252 168.042 253.732 172.246C294.306 176.922 336.717 156.067 351.523 142.463C409.005 214.599 280.234 227.241 216.811 225.844Z" fill="white"/>
<path d="M208.96 229.104C101.946 226.816 44.9002 253.038 34.0645 271.55C56.0699 198.209 124.919 165.769 156.592 158.717C147.424 162.537 136.349 171.472 141.195 177.004C144.505 180.782 168.832 186.65 185.64 170.176C203.942 152.238 223.274 152.253 237.861 151.666C230.359 155.485 209.382 175.421 244.294 179.326C283.125 183.668 329.491 159.097 343.66 146.463C398.673 213.457 269.658 230.401 208.96 229.104Z" fill="#1DFFFA"/>
<path d="M52.8936 247.863C66.7813 229.558 119.303 194.209 218.287 199.258C317.27 204.307 340.754 178.214 340.123 164.537" stroke="#FFB458" stroke-width="3" stroke-linecap="round"/>
<path d="M94.5742 218.001C97.5666 210.44 108.135 194.088 126.468 189.176" stroke="#FFB458" stroke-width="3" stroke-linecap="round"/>
<path d="M241.768 197.09C245.421 194.245 258.322 188.093 280.702 186.244" stroke="#FFB458" stroke-width="3" stroke-linecap="round"/>
<path d="M112.529 213.512C119.301 216.425 137.051 221.212 153.873 217.054" stroke="#FFB458" stroke-width="3" stroke-linecap="round"/>
<path d="M149.857 201.46C157.024 194.687 175.137 180.62 190.256 178.543" stroke="#FFB458" stroke-width="3" stroke-linecap="round"/>
<path d="M175.608 200.518C183.326 208.865 204.951 223.386 229.71 214.692" stroke="#FFB458" stroke-width="3" stroke-linecap="round"/>
<path d="M257.828 200.518C265.731 204.692 287.875 211.954 313.228 207.606" stroke="#FFB458" stroke-width="3" stroke-linecap="round"/>
<circle cx="128.138" cy="187.882" r="5.0633" fill="#FF1500"/>
<circle cx="154.921" cy="216.663" r="5.0633" fill="#FF1500"/>
<circle cx="192.873" cy="177.755" r="5.0633" fill="#FF1500"/>
<circle cx="229.71" cy="214.011" r="5.0633" fill="#FF1500"/>
<circle cx="282.828" cy="186.243" r="5.0633" fill="#FF1500"/>
<circle cx="313.227" cy="206.524" r="5.0633" fill="#FF1500"/>
</svg>
