<svg width="400" height="400" viewBox="0 0 400 400" fill="none" xmlns="http://www.w3.org/2000/svg">
<path d="M332.446 84.3247C348.021 82.9021 363.126 92.4742 375.017 109.135C373.678 109.673 372.346 110.234 371.022 110.82C370.925 110.842 370.827 110.866 370.729 110.894L157.053 173.102C135.887 178.039 115.733 188.559 98.9219 204.707C67.9194 234.488 55.5893 276.396 62.2236 315.815C48.8557 302.756 36.7872 284.339 28.3896 262.485C8.70084 211.246 16.6445 160.523 46.1328 149.192C58.0987 144.594 71.7733 147.189 85.1152 155.32C88.4548 130.017 99.7757 110.999 117.322 105.736C130.951 101.648 146.011 106.555 159.89 117.989C168.539 101.307 181.008 90.4985 195.643 89.1616C208.691 87.9696 221.412 94.4951 232.187 106.442C240.513 93.6052 251.483 85.4736 264.049 84.3257C277.85 83.065 291.282 90.4371 302.437 103.725C310.509 92.4626 320.791 85.3894 332.446 84.3247Z" fill="#25DD65"/>
<path d="M345.46 102.846C358.638 101.803 371.489 107.423 382.427 117.751C371.092 119.077 359.916 122.014 349.299 126.572C349.035 126.605 348.769 126.656 348.501 126.731L151.887 181.729C132.318 186.113 113.685 195.456 98.1424 209.8C70.7665 235.067 59.1412 270.162 63.5028 303.769C51.8871 292.616 41.52 278.005 34.0155 261.072C13.8484 215.566 21.9855 170.519 52.1903 160.456C64.447 156.372 78.4538 158.677 92.12 165.898C95.5407 143.427 107.136 126.536 125.108 121.862C139.068 118.231 154.495 122.59 168.711 132.744C177.57 117.929 190.343 108.329 205.333 107.142C218.698 106.084 231.727 111.879 242.764 122.489C251.292 111.088 262.529 103.867 275.4 102.847C289.536 101.728 303.296 108.275 314.721 120.076C322.989 110.073 333.521 103.792 345.46 102.846Z" fill="#0049DB"/>
<path d="M64.6016 268.659C64.2733 270.283 63.9829 271.913 63.7305 273.548L35.9658 219.228L38.6377 217.862L64.6016 268.659ZM66.2246 261.8C65.6357 263.97 65.1164 266.155 64.666 268.351L47.6855 195.165L50.6074 194.488L66.2246 261.8ZM68.9326 253.244C67.9839 255.857 67.1385 258.498 66.3984 261.16L61.7891 183.985L64.7842 183.808L68.9326 253.244ZM83.9932 172.766L75.8984 237.907C74.4379 240.555 73.0957 243.248 71.873 245.979L81.0176 172.395L83.9932 172.766ZM112.761 152.213L91.8926 215.879C90.1241 217.776 88.4368 219.719 86.8271 221.702L109.91 151.277L112.761 152.213ZM136.472 143.778L109.117 200.75C107.341 202.022 105.594 203.349 103.878 204.731L133.768 142.479L136.472 143.778ZM159.782 139.634L128.247 189.649C126.522 190.442 124.812 191.278 123.12 192.157L157.244 138.034L159.782 139.634ZM190.809 125.614L146.422 183.053C144.775 183.502 143.135 183.986 141.506 184.507L188.435 123.779L190.809 125.614ZM213.771 123.057L163.69 178.388L158.272 179.902L211.546 121.044L213.771 123.057ZM229.522 129.374L184.277 172.629L178.141 174.345L227.449 127.206L229.522 129.374ZM261.82 123.636L211.741 164.946L204.606 166.942L259.911 121.32L261.82 123.636ZM289.628 118.941L237.221 157.819L229.139 160.08L287.841 116.532L289.628 118.941ZM304.903 125.689L270.638 148.472L261.285 151.088L303.241 123.191L304.903 125.689ZM342.076 116.133L304.572 138.979L293.911 141.962L340.516 113.57L342.076 116.133ZM359.122 117.802L338.555 129.475L326.567 132.827L357.641 115.192L359.122 117.802Z" fill="#FF1E1E"/>
<path d="M40.001 215.988C42.229 215.988 44.0352 217.794 44.0352 220.022C44.0352 222.25 42.229 224.057 40.001 224.057C37.7727 224.057 35.9658 222.251 35.9658 220.022C35.9658 217.794 37.7727 215.988 40.001 215.988ZM46.6582 194.601C47.2349 192.449 49.4473 191.171 51.5996 191.748C53.7518 192.325 55.0296 194.537 54.4531 196.689C53.8764 198.841 51.6639 200.119 49.5117 199.543C47.3595 198.966 46.0817 196.754 46.6582 194.601ZM61.4736 180.794C62.5878 178.864 65.0556 178.203 66.9854 179.317C68.9149 180.431 69.5758 182.898 68.4619 184.828C67.3478 186.758 64.8799 187.42 62.9502 186.305C61.0207 185.191 60.3596 182.723 61.4736 180.794ZM80.9277 171.233C82.5033 169.658 85.0582 169.658 86.6338 171.233C88.2094 172.809 88.2093 175.364 86.6338 176.939C85.0582 178.515 82.5034 178.515 80.9277 176.939C79.3523 175.364 79.3522 172.809 80.9277 171.233ZM109.584 149.984C111.514 148.87 113.981 149.531 115.095 151.461C116.209 153.391 115.548 155.858 113.618 156.972C111.688 158.087 109.221 157.425 108.106 155.495C106.993 153.565 107.654 151.098 109.584 149.984ZM134.652 139.827C136.805 139.25 139.017 140.528 139.594 142.68C140.17 144.833 138.893 147.045 136.741 147.622C134.589 148.199 132.377 146.921 131.8 144.768C131.223 142.616 132.5 140.404 134.652 139.827ZM157.217 136.974C159.369 136.398 161.581 137.675 162.158 139.827C162.735 141.979 161.457 144.192 159.305 144.768C157.152 145.345 154.94 144.068 154.363 141.916C153.787 139.763 155.064 137.551 157.217 136.974ZM227.301 124.74C229.453 124.163 231.665 125.441 232.242 127.594C232.819 129.746 231.542 131.958 229.39 132.535C227.237 133.112 225.025 131.834 224.448 129.681C223.872 127.529 225.149 125.317 227.301 124.74ZM187.615 122.652C189.768 122.075 191.98 123.353 192.557 125.505C193.133 127.657 191.856 129.869 189.704 130.446C187.552 131.023 185.339 129.746 184.763 127.594C184.186 125.441 185.463 123.229 187.615 122.652ZM303.375 120.433C305.527 119.857 307.74 121.134 308.316 123.286C308.893 125.438 307.615 127.651 305.463 128.227C303.311 128.804 301.098 127.527 300.521 125.375C299.945 123.222 301.223 121.01 303.375 120.433ZM211.238 119.241C213.391 118.664 215.603 119.941 216.18 122.094C216.756 124.246 215.479 126.458 213.326 127.035C211.174 127.611 208.961 126.335 208.385 124.182C207.808 122.03 209.086 119.818 211.238 119.241ZM260.438 117.78C262.591 117.204 264.803 118.481 265.38 120.634C265.956 122.786 264.679 124.998 262.526 125.575C260.374 126.151 258.162 124.874 257.585 122.721C257.009 120.569 258.286 118.357 260.438 117.78ZM286.087 114.928C288.239 114.351 290.451 115.628 291.028 117.78C291.605 119.932 290.328 122.145 288.176 122.721C286.023 123.298 283.811 122.021 283.234 119.869C282.658 117.717 283.935 115.504 286.087 114.928ZM338.402 111.599C340.555 111.023 342.767 112.3 343.344 114.452C343.92 116.604 342.643 118.817 340.491 119.393C338.339 119.97 336.127 118.693 335.55 116.541C334.973 114.389 336.25 112.176 338.402 111.599ZM358.223 111.599C360.375 111.023 362.587 112.3 363.164 114.452C363.741 116.604 362.463 118.817 360.311 119.393C358.158 119.97 355.946 118.693 355.369 116.541C354.792 114.388 356.07 112.176 358.223 111.599Z" fill="#FCDF0C"/>
</svg>
