<svg width="400" height="400" viewBox="0 0 400 400" fill="none" xmlns="http://www.w3.org/2000/svg">
<path d="M332.909 84.3247C348.483 82.9021 363.589 92.4737 375.48 109.134C374.141 109.672 372.809 110.233 371.485 110.819C371.388 110.841 371.29 110.865 371.192 110.893L157.516 173.102C136.35 178.039 116.196 188.558 99.3848 204.707C68.3824 234.487 56.0523 276.395 62.6865 315.814C49.3187 302.756 37.2501 284.338 28.8526 262.484C9.16374 211.245 17.1073 160.522 46.5957 149.191C58.5617 144.593 72.2362 147.189 85.5781 155.32C88.9176 130.017 100.239 110.998 117.785 105.735C131.414 101.647 146.474 106.555 160.353 117.988C169.002 101.306 181.471 90.4975 196.105 89.1606C209.154 87.9687 221.874 94.4946 232.649 106.441C240.975 93.6041 251.945 85.4726 264.512 84.3247C278.312 83.064 291.745 90.4363 302.899 103.724C310.972 92.4618 321.254 85.3894 332.909 84.3247Z" fill="white"/>
<path d="M345.46 99.6001C358.638 98.5564 371.488 104.177 382.426 114.504C371.092 115.831 359.916 118.768 349.3 123.326C349.036 123.359 348.769 123.41 348.501 123.485L151.888 178.482C132.319 182.866 113.686 192.209 98.1435 206.553C70.7679 231.819 59.1419 266.914 63.5028 300.521C51.8878 289.368 41.5209 274.759 34.0165 257.826C13.8493 212.32 21.9865 167.273 52.1913 157.209C64.4477 153.126 78.4542 155.43 92.12 162.651C95.5409 140.18 107.137 123.29 125.109 118.616C139.069 114.985 154.495 119.344 168.711 129.498C177.57 114.682 190.343 105.083 205.333 103.896C218.698 102.837 231.728 108.632 242.766 119.242C251.293 107.842 262.53 100.62 275.401 99.6001C289.537 98.4806 303.297 105.029 314.722 116.83C322.99 106.827 333.521 100.546 345.46 99.6001Z" fill="#57B76D"/>
<path d="M317.745 121.397C324.77 120.806 331.682 122.617 338.144 126.378L151.894 178.477C132.325 182.861 113.691 192.204 98.1485 206.549C77.3908 225.707 65.6918 250.517 63.1485 276.044C60.7384 271.74 58.523 267.2 56.545 262.456C39.6314 221.887 46.4554 181.727 71.7872 172.756C82.0664 169.115 93.8142 171.169 105.275 177.606C108.145 157.573 117.87 142.517 132.942 138.349C144.651 135.112 157.588 138.998 169.511 148.051C176.941 134.843 187.653 126.285 200.225 125.226C211.434 124.283 222.361 129.449 231.618 138.908C238.77 128.745 248.194 122.306 258.988 121.397C270.844 120.399 282.384 126.237 291.966 136.758C298.901 127.841 307.733 122.24 317.745 121.397Z" fill="#01509E"/>
</svg>
