<svg width="400" height="400" viewBox="0 0 400 400" fill="none" xmlns="http://www.w3.org/2000/svg">
<path d="M183.189 220.88C295.007 218.15 354.613 249.448 365.936 271.543C342.942 184.005 271.003 145.285 237.907 136.867C247.488 141.426 259.059 152.092 253.996 158.694C250.537 163.204 225.119 170.208 207.556 150.545C188.432 129.134 168.232 129.152 152.991 128.451C160.829 133.01 182.748 156.805 146.268 161.466C105.694 166.649 63.2834 143.532 48.4774 128.451C-9.00479 208.415 119.766 222.429 183.189 220.88Z" fill="#00938F"/>
<path d="M183.189 225.844C295.007 223.381 354.613 251.615 365.936 271.548C342.942 192.579 271.003 157.649 237.907 150.055C247.488 154.168 259.059 163.79 253.996 169.746C250.537 173.814 225.119 180.133 207.556 162.394C188.432 143.079 168.232 143.095 152.991 142.463C160.829 146.576 182.748 168.042 146.268 172.246C105.694 176.922 63.2834 156.067 48.4774 142.463C-9.00479 214.599 119.766 227.241 183.189 225.844Z" fill="white"/>
<path d="M191.04 229.104C298.054 226.816 355.1 253.038 365.936 271.55C343.93 198.209 275.081 165.769 243.408 158.717C252.576 162.537 263.651 171.472 258.805 177.004C255.495 180.782 231.168 186.65 214.36 170.176C196.058 152.238 176.726 152.253 162.139 151.666C169.641 155.485 190.618 175.421 155.706 179.326C116.875 183.668 70.5095 159.097 56.3395 146.463C1.32684 213.457 130.342 230.401 191.04 229.104Z" fill="#1DFFFA"/>
<path d="M347.106 247.863C333.219 229.558 280.697 194.209 181.713 199.258C82.7296 204.307 59.2462 178.214 59.8774 164.537" stroke="#FFB458" stroke-width="3" stroke-linecap="round"/>
<path d="M305.426 218.001C302.433 210.44 291.865 194.088 273.532 189.176" stroke="#FFB458" stroke-width="3" stroke-linecap="round"/>
<path d="M158.232 197.09C154.579 194.245 141.678 188.093 119.298 186.244" stroke="#FFB458" stroke-width="3" stroke-linecap="round"/>
<path d="M287.471 213.512C280.699 216.425 262.949 221.212 246.127 217.054" stroke="#FFB458" stroke-width="3" stroke-linecap="round"/>
<path d="M250.143 201.46C242.976 194.687 224.863 180.62 209.744 178.543" stroke="#FFB458" stroke-width="3" stroke-linecap="round"/>
<path d="M224.392 200.518C216.674 208.865 195.049 223.386 170.29 214.692" stroke="#FFB458" stroke-width="3" stroke-linecap="round"/>
<path d="M142.172 200.518C134.269 204.692 112.125 211.954 86.7718 207.606" stroke="#FFB458" stroke-width="3" stroke-linecap="round"/>
<circle cx="5.0633" cy="5.0633" r="5.0633" transform="matrix(-1 0 0 1 276.925 182.818)" fill="#FF1500"/>
<circle cx="5.0633" cy="5.0633" r="5.0633" transform="matrix(-1 0 0 1 250.143 211.6)" fill="#FF1500"/>
<circle cx="5.0633" cy="5.0633" r="5.0633" transform="matrix(-1 0 0 1 212.19 172.691)" fill="#FF1500"/>
<circle cx="5.0633" cy="5.0633" r="5.0633" transform="matrix(-1 0 0 1 175.354 208.947)" fill="#FF1500"/>
<circle cx="5.0633" cy="5.0633" r="5.0633" transform="matrix(-1 0 0 1 122.235 181.18)" fill="#FF1500"/>
<circle cx="5.0633" cy="5.0633" r="5.0633" transform="matrix(-1 0 0 1 91.8359 201.461)" fill="#FF1500"/>
</svg>
