<svg width="400" height="400" viewBox="0 0 400 400" fill="none" xmlns="http://www.w3.org/2000/svg">
<path d="M332.678 84.3247C348.252 82.9021 363.357 92.4737 375.248 109.134C373.909 109.672 372.578 110.234 371.254 110.82C371.157 110.842 371.059 110.866 370.961 110.894L157.284 173.102C136.118 178.039 115.965 188.559 99.1533 204.707C68.1508 234.488 55.8207 276.396 62.4551 315.815C49.0872 302.757 37.0187 284.339 28.6211 262.485C8.93228 211.246 16.876 160.523 46.3642 149.192C58.3301 144.594 72.0048 147.189 85.3467 155.32C88.6862 130.017 100.007 110.998 117.554 105.735C131.183 101.647 146.242 106.555 160.121 117.989C168.77 101.307 181.239 90.4985 195.874 89.1616C208.922 87.9697 221.642 94.4948 232.418 106.441C240.744 93.6043 251.714 85.4736 264.28 84.3257C278.081 83.065 291.514 90.4371 302.668 103.725C310.741 92.4626 321.022 85.3894 332.678 84.3247Z" fill="#009434"/>
<path d="M345.229 99.6001C358.407 98.5564 371.258 104.177 382.195 114.504C370.861 115.831 359.685 118.768 349.068 123.326C348.805 123.359 348.538 123.41 348.27 123.485L151.656 178.483C132.088 182.867 113.455 192.21 97.9121 206.554C70.5367 231.82 58.9107 266.914 63.2715 300.521C51.6565 289.368 41.2895 274.759 33.7852 257.826C13.6182 212.32 21.7546 167.273 51.959 157.21C64.2155 153.126 78.2228 155.43 91.8887 162.651C95.3097 140.18 106.906 123.29 124.878 118.616C138.838 114.985 154.264 119.345 168.48 129.499C177.339 114.683 190.111 105.083 205.102 103.896C218.467 102.837 231.497 108.633 242.534 119.243C251.062 107.842 262.298 100.621 275.17 99.6011C289.306 98.4815 303.065 105.029 314.49 116.83C322.759 106.828 333.29 100.546 345.229 99.6001Z" fill="#FFDE25"/>
<path d="M264.37 136.69C271.215 136.114 277.954 137.816 284.272 141.383L151.661 178.477C132.093 182.861 113.459 192.204 97.9171 206.549C76.2481 226.548 64.4486 252.706 62.6329 279.409C62.3946 278.858 62.1588 278.305 61.9269 277.749C45.0132 237.18 51.8372 197.02 77.1691 188.049C87.4483 184.408 99.1961 186.462 110.657 192.899C113.527 172.866 123.251 157.81 138.324 153.642C150.032 150.406 162.97 154.291 174.893 163.344C182.323 150.136 193.035 141.578 205.607 140.519C216.816 139.576 227.743 144.742 237 154.201C244.152 144.038 253.576 137.599 264.37 136.69Z" fill="#FF0101"/>
<path d="M65.373 263.428C65.035 265.031 64.7346 266.641 64.4707 268.255L37.1865 214.875L39.8584 213.51L65.373 263.428ZM67.1582 256.209C66.5587 258.319 66.0247 260.442 65.5566 262.576L48.9062 190.812L51.8281 190.136L67.1582 256.209ZM70.0664 247.427C69.1187 249.924 68.2664 252.447 67.5107 254.991L63.0098 179.633L66.0049 179.455L70.0664 247.427ZM85.2139 168.413L77.2988 232.11C75.8674 234.615 74.5441 237.161 73.3281 239.744L82.2383 168.042L85.2139 168.413ZM113.981 147.86L93.4482 210.504C91.7123 212.32 90.0525 214.181 88.4648 216.079L111.131 146.925L113.981 147.86ZM137.692 139.426L110.663 195.72C108.91 196.948 107.185 198.23 105.489 199.565L134.988 138.127L137.692 139.426ZM158.576 139.261L129.798 184.86C128.09 185.626 126.397 186.433 124.721 187.284L156.039 137.658L158.576 139.261ZM187.938 126.378L147.692 178.519C146.058 178.954 144.431 179.422 142.814 179.928L185.562 124.545L187.938 126.378ZM210.301 123.729L164.996 173.835L159.583 175.35L208.076 121.717L210.301 123.729ZM230.743 125.021L185.759 168.027L179.622 169.744L228.67 122.854L230.743 125.021ZM263.041 119.283L213.285 160.327L206.15 162.323L261.132 116.968L263.041 119.283ZM287.309 117.15L238.714 153.215L230.636 155.475L285.521 114.741L287.309 117.15ZM306.124 121.337L272.316 143.815L262.963 146.432L304.462 118.839L306.124 121.337ZM338.192 114.819L306.141 134.354L295.484 137.334L336.631 112.257L338.192 114.819ZM360.343 113.449L340.389 124.773L328.402 128.126L358.861 110.84L360.343 113.449Z" fill="#FF1E1E"/>
<path d="M38.5 213.744C40.7281 213.744 42.5342 215.55 42.5342 217.778C42.5342 220.006 40.7281 221.813 38.5 221.813C36.2717 221.813 34.4648 220.006 34.4648 217.778C34.4648 215.55 36.2717 213.744 38.5 213.744ZM45.1572 192.357C45.7339 190.205 47.9464 188.927 50.0986 189.504C52.2509 190.08 53.5286 192.293 52.9521 194.445C52.3755 196.597 50.163 197.875 48.0107 197.299C45.8585 196.722 44.5807 194.51 45.1572 192.357ZM59.9727 178.55C61.0868 176.62 63.5546 175.959 65.4844 177.073C67.4139 178.187 68.0748 180.654 66.9609 182.584C65.8468 184.514 63.379 185.175 61.4492 184.061C59.5197 182.947 58.8587 180.479 59.9727 178.55ZM79.4268 168.989C81.0024 167.414 83.5572 167.414 85.1328 168.989C86.7084 170.565 86.7083 173.119 85.1328 174.695C83.5572 176.271 81.0024 176.271 79.4268 174.695C77.8513 173.119 77.8512 170.565 79.4268 168.989ZM108.083 147.74C110.013 146.626 112.48 147.287 113.594 149.217C114.708 151.146 114.047 153.614 112.117 154.728C110.187 155.842 107.72 155.181 106.605 153.251C105.492 151.321 106.153 148.854 108.083 147.74ZM133.151 137.583C135.304 137.006 137.516 138.284 138.093 140.436C138.669 142.589 137.393 144.801 135.24 145.378C133.088 145.954 130.876 144.677 130.299 142.524C129.722 140.372 130.999 138.16 133.151 137.583ZM155.716 134.73C157.868 134.154 160.08 135.431 160.657 137.583C161.234 139.735 159.956 141.948 157.804 142.524C155.651 143.101 153.439 141.824 152.862 139.672C152.286 137.519 153.563 135.307 155.716 134.73ZM225.8 122.496C227.952 121.919 230.164 123.197 230.741 125.349C231.318 127.502 230.041 129.714 227.889 130.291C225.736 130.868 223.524 129.59 222.947 127.437C222.371 125.285 223.648 123.073 225.8 122.496ZM186.114 120.408C188.267 119.831 190.479 121.108 191.056 123.261C191.632 125.413 190.355 127.625 188.203 128.202C186.051 128.779 183.839 127.502 183.262 125.349C182.685 123.197 183.962 120.985 186.114 120.408ZM301.874 118.189C304.026 117.613 306.239 118.89 306.815 121.042C307.392 123.194 306.114 125.406 303.962 125.983C301.81 126.56 299.597 125.283 299.021 123.131C298.444 120.978 299.722 118.766 301.874 118.189ZM209.737 116.997C211.89 116.42 214.102 117.697 214.679 119.849C215.255 122.002 213.978 124.214 211.825 124.791C209.673 125.367 207.461 124.091 206.884 121.938C206.307 119.786 207.585 117.574 209.737 116.997ZM258.938 115.536C261.09 114.959 263.302 116.237 263.879 118.389C264.455 120.542 263.178 122.754 261.025 123.331C258.873 123.907 256.661 122.63 256.084 120.477C255.508 118.325 256.785 116.113 258.938 115.536ZM284.586 112.683C286.738 112.107 288.951 113.384 289.527 115.536C290.104 117.688 288.827 119.901 286.675 120.477C284.523 121.054 282.31 119.777 281.733 117.625C281.157 115.473 282.434 113.26 284.586 112.683ZM336.901 109.355C339.054 108.779 341.266 110.056 341.843 112.208C342.419 114.36 341.142 116.572 338.99 117.149C336.838 117.726 334.626 116.449 334.049 114.297C333.472 112.144 334.749 109.932 336.901 109.355ZM356.722 109.355C358.874 108.779 361.086 110.056 361.663 112.208C362.24 114.36 360.962 116.573 358.81 117.149C356.657 117.726 354.445 116.449 353.868 114.297C353.291 112.144 354.569 109.932 356.722 109.355Z" fill="#140CFC"/>
</svg>
