<svg width="50" height="50" viewBox="0 0 50 50" fill="currentColor" xmlns="http://www.w3.org/2000/svg">
<ellipse cx="24.9611" cy="24.92" rx="4.23839" ry="4.2384" fill="#FF7575"/>
<path d="M23.3824 13.7755C25.7411 18.493 24.3652 20.7881 23.3824 21.3459L26.1101 21.4712C26.5497 20.5176 27.518 17.5739 27.8744 13.4273C28.3198 8.24419 27.2151 4.75932 25.827 2.45625C24.4388 0.15317 22.4175 -0.675144 20.3537 0.595507C18.1174 1.97234 20.434 7.87863 23.3824 13.7755Z" fill="#FF7575"/>
<path d="M31.7926 15.9206C30.1247 20.9243 27.5289 21.5742 26.4396 21.2737L28.2797 23.291C29.2648 22.9276 32.0311 21.5308 35.2151 18.8507C39.1951 15.5007 40.8781 12.2553 41.5251 9.64524C42.172 7.03515 41.3285 5.02015 38.9706 4.45929C36.4158 3.85156 33.8775 9.66607 31.7926 15.9206Z" fill="#FF7575"/>
<path d="M36.2245 23.3815C31.507 25.7402 29.212 24.3643 28.6541 23.3815L28.5288 26.1091C29.4824 26.5487 32.4262 27.5171 36.5727 27.8734C41.7558 28.3189 45.2407 27.2142 47.5438 25.826C49.8468 24.4378 50.6751 22.4165 49.4045 20.3527C48.0277 18.1164 42.1214 20.4331 36.2245 23.3815Z" fill="#FF7575"/>
<path d="M34.0814 31.7926C29.0777 30.1247 28.4278 27.5289 28.7283 26.4395L26.711 28.2797C27.0744 29.2648 28.4712 32.0311 31.1513 35.2151C34.5013 39.1951 37.7466 40.8782 40.3567 41.5251C42.9668 42.172 44.9818 41.3285 45.5427 38.9706C46.1504 36.4158 40.3359 33.8775 34.0814 31.7926Z" fill="#FF7575"/>
<path d="M26.6181 36.2225C24.2594 31.505 25.6353 29.21 26.6181 28.6521L23.8904 28.5268C23.4508 29.4804 22.4824 32.4242 22.1261 36.5707C21.6807 41.7539 22.7854 45.2387 24.1735 47.5418C25.5617 49.8449 27.583 50.6732 29.6468 49.4025C31.8831 48.0257 29.5664 42.1194 26.6181 36.2225Z" fill="#FF7575"/>
<path d="M18.2069 34.0813C19.8748 29.0777 22.4706 28.4278 23.5599 28.7282L21.7198 26.7109C20.7347 27.0743 17.9684 28.4712 14.7844 31.1512C10.8044 34.5013 9.12136 37.7466 8.47442 40.3567C7.82747 42.9668 8.67105 44.9818 11.0289 45.5427C13.5837 46.1504 16.122 40.3359 18.2069 34.0813Z" fill="#FF7575"/>
<path d="M13.7755 26.6205C18.493 24.2618 20.788 25.6377 21.3459 26.6205L21.4712 23.8928C20.5176 23.4532 17.5738 22.4849 13.4273 22.1285C8.24417 21.6831 4.75931 22.7878 2.45624 24.1759C0.153169 25.5641 -0.675142 27.5854 0.595505 29.6493C1.97233 31.8855 7.87861 29.5689 13.7755 26.6205Z" fill="#FF7575"/>
<path d="M15.9191 18.2093C20.9228 19.8773 21.5727 22.473 21.2722 23.5624L23.2895 21.7223C22.9261 20.7371 21.5293 17.9709 18.8492 14.7868C15.4992 10.8068 12.2539 9.1238 9.64376 8.47685C7.03367 7.82991 5.01868 8.67349 4.45782 11.0313C3.85009 13.5862 9.66459 16.1244 15.9191 18.2093Z" fill="#FF7575"/>
</svg>
