<svg width="50" height="50" viewBox="0 0 50 50" fill="currentColor" xmlns="http://www.w3.org/2000/svg">
<path d="M49.4038 20.3525C50.6745 22.4164 49.8465 24.438 47.5435 25.8262C45.2404 27.2143 41.7556 28.3184 36.5728 27.873C32.9379 27.5607 30.2271 26.7775 28.9712 26.293C28.8898 26.5307 28.7888 26.7591 28.6685 26.9756C28.6945 28.2337 29.7739 30.3573 34.0806 31.793C40.3351 33.8779 46.1502 36.4158 45.5425 38.9707C44.9816 41.3284 42.966 42.1723 40.356 41.5254C37.7459 40.8784 34.5008 39.1947 31.1509 35.2148C28.7847 32.4038 27.4199 29.9179 26.8823 28.6963C26.6695 28.8048 26.4471 28.8971 26.2153 28.9688C25.3358 29.8633 24.5725 32.1321 26.6177 36.2227C29.566 42.1195 31.8823 48.0255 29.646 49.4023C27.5824 50.6727 25.5614 49.8447 24.1733 47.542C22.7852 45.2389 21.6801 41.7535 22.1255 36.5703C22.4379 32.9351 23.2211 30.2245 23.7056 28.9688C23.4547 28.891 23.2144 28.7896 22.9858 28.6689C21.7233 28.7156 19.628 29.8169 18.2065 34.0811C16.1217 40.3353 13.5835 46.15 11.0288 45.543C8.67098 44.9821 7.82718 42.9665 8.47412 40.3564C9.12108 37.7464 10.804 34.5013 14.7837 31.1514C17.5353 28.8352 19.9755 27.4776 21.2231 26.917C21.0836 26.6563 20.9712 26.3795 20.8882 26.0898C19.9084 25.2704 17.666 24.6752 13.7759 26.6201C7.87901 29.5685 1.97206 31.8857 0.595215 29.6494C-0.675434 27.5856 0.153473 25.5639 2.45654 24.1758C4.75958 22.7877 8.24435 21.6826 13.4272 22.1279C16.9538 22.431 19.6104 23.1774 20.9126 23.6641C21.0111 23.3461 21.1465 23.0447 21.313 22.7637C21.1485 21.4882 19.9384 19.549 15.9185 18.209C9.66407 16.1241 3.84985 13.5861 4.45752 11.0312C5.01836 8.67352 7.03315 7.82978 9.64307 8.47656C12.2532 9.12351 15.4991 10.8071 18.8491 14.7871C21.113 17.4767 22.4613 19.8681 23.0444 21.1396C23.34 20.9895 23.6553 20.8728 23.9858 20.7949C24.7652 19.7702 25.2684 17.5476 23.3823 13.7754C20.4341 7.87879 18.1173 1.97293 20.353 0.595703C22.4168 -0.674942 24.4385 0.152999 25.8267 2.45605C27.2148 4.75907 28.3189 8.24384 27.8735 13.4268C27.5706 16.9523 26.8251 19.6085 26.3384 20.9111C26.6418 21.0154 26.9298 21.1526 27.1978 21.3193C28.4723 21.1754 30.4382 19.9834 31.7925 15.9209C33.8774 9.66634 36.4163 3.85125 38.9712 4.45898C41.3287 5.01997 42.1718 7.03555 41.5249 9.64551C40.8779 12.2555 39.1951 15.5007 35.2153 18.8506C32.4681 21.163 30.0312 22.5188 28.7817 23.0811C28.9031 23.3328 28.9998 23.5986 29.0698 23.875C30.0265 24.7127 32.2767 25.3545 36.2241 23.3809C42.1208 20.4326 48.0268 18.1166 49.4038 20.3525Z" fill="#A6A6A6" fill-opacity="0.64"/>
</svg>
