<svg width="400" height="400" viewBox="0 0 400 400" fill="none" xmlns="http://www.w3.org/2000/svg">
<path d="M36.5847 174.222C42.2898 158.988 59.2649 151.261 74.4997 156.966C98.1286 165.815 140.178 176.893 186.789 180.108C233.694 183.344 281.973 178.393 320.53 158.402C334.972 150.914 352.75 156.552 360.238 170.994C366.984 184.005 363.075 199.722 351.674 208.184C355.151 210.767 358.11 214.159 360.238 218.263C367.726 232.705 362.088 250.483 347.646 257.971C295.649 284.931 235.09 289.762 182.735 286.15C130.086 282.518 82.4527 270.122 53.8396 259.407C38.6049 253.702 30.8799 236.727 36.5847 221.492C38.648 215.982 42.1857 211.454 46.5818 208.189C36.3181 200.56 31.8754 186.798 36.5847 174.222ZM82.0124 194.084C72.5665 190.621 62.1019 195.472 58.6394 204.918C55.1771 214.363 60.0276 224.828 69.4734 228.291C93.6528 237.154 134.593 247.471 180.636 250.487C226.576 253.497 279.253 249.348 325.735 227.7C334.855 223.452 338.804 212.616 334.557 203.497C330.31 194.377 319.473 190.427 310.353 194.674C271.463 212.787 225.587 216.921 183.018 214.132C140.553 211.35 103.028 201.787 82.0124 194.084Z" fill="#FF0B0B"/>
<path d="M309.71 217.789L344.233 93.9446L354.416 97.2457L309.71 217.789Z" fill="#0049DB"/>
<path d="M90.2896 223.32L55.7666 99.4759L45.584 102.777L90.2896 223.32Z" fill="#0049DB"/>
<path d="M309.71 217.79L358.498 98.8406L368.224 103.311L309.71 217.79Z" fill="#0049DB"/>
<path d="M90.2898 223.321L41.5017 104.372L31.7756 108.843L90.2898 223.321Z" fill="#0049DB"/>
<path d="M309.71 217.791L372.429 105.561L381.548 111.167L309.71 217.791Z" fill="#0049DB"/>
<path d="M90.2898 223.32L27.5706 111.09L18.4518 116.696L90.2898 223.32Z" fill="#0049DB"/>
<path d="M309.71 217.79L386.056 114.346L394.396 121.056L309.71 217.79Z" fill="#0049DB"/>
<path d="M90.2894 223.321L13.9435 119.878L5.60289 126.587L90.2894 223.321Z" fill="#0049DB"/>
<path d="M94.8936 207.827C96.5033 208.21 98.4574 208.67 100.708 209.185C107.622 210.765 117.299 212.875 128.325 214.986C150.654 219.263 177.488 223.342 198.101 223.4C219.097 223.46 246.443 219.383 269.201 215.075C280.439 212.948 290.303 210.815 297.351 209.215C300.234 208.56 302.641 207.993 304.473 207.557L308.785 203.918L349.508 258.525L301.313 240.899C294.308 242.461 285.254 244.382 275.112 246.302C268.503 247.553 261.345 248.819 253.928 249.989L232.759 297.306L214.699 256.941L195.195 306.054L174.992 255.182L156.146 297.306L134.257 248.381C130.14 247.662 126.151 246.929 122.348 246.2C111.976 244.214 102.765 242.232 95.7803 240.655L48.7471 257.858L89.4697 203.25L94.8936 207.827Z" fill="white"/>
<path d="M94.8936 207.827L94.6436 208.123L94.7141 208.183L94.8039 208.204L94.8936 207.827ZM100.708 209.185L100.622 209.562V209.562L100.708 209.185ZM128.325 214.986L128.252 215.367V215.367L128.325 214.986ZM198.101 223.4L198.099 223.788V223.788L198.101 223.4ZM269.201 215.075L269.273 215.456V215.456L269.201 215.075ZM297.351 209.215L297.436 209.593V209.593L297.351 209.215ZM304.473 207.557L304.563 207.934L304.652 207.912L304.723 207.853L304.473 207.557ZM308.785 203.918L309.096 203.686L308.85 203.356L308.535 203.622L308.785 203.918ZM349.508 258.525L349.375 258.889L350.596 259.336L349.819 258.294L349.508 258.525ZM301.313 240.899L301.447 240.535L301.34 240.496L301.229 240.521L301.313 240.899ZM275.112 246.302L275.184 246.683V246.683L275.112 246.302ZM253.928 249.989L253.867 249.606L253.66 249.639L253.574 249.831L253.928 249.989ZM232.759 297.306L232.405 297.464L232.759 298.255L233.113 297.464L232.759 297.306ZM214.699 256.941L215.053 256.783L214.678 255.945L214.339 256.798L214.699 256.941ZM195.195 306.054L194.835 306.197L195.195 307.104L195.556 306.197L195.195 306.054ZM174.992 255.182L175.352 255.039L175.013 254.185L174.638 255.023L174.992 255.182ZM156.146 297.306L155.793 297.464L156.146 298.255L156.5 297.464L156.146 297.306ZM134.257 248.381L134.611 248.223L134.526 248.035L134.324 247.999L134.257 248.381ZM122.348 246.2L122.275 246.581V246.581L122.348 246.2ZM95.7803 240.655L95.8656 240.277L95.7543 240.252L95.6471 240.291L95.7803 240.655ZM48.7471 257.858L48.4364 257.627L47.6591 258.669L48.8802 258.222L48.7471 257.858ZM89.4697 203.25L89.7197 202.954L89.4051 202.688L89.159 203.018L89.4697 203.25ZM94.8936 207.827L94.8039 208.204C96.4143 208.587 98.3696 209.048 100.622 209.562L100.708 209.185L100.794 208.807C98.5452 208.293 96.5922 207.833 94.9832 207.45L94.8936 207.827ZM100.708 209.185L100.622 209.562C107.539 211.144 117.221 213.254 128.252 215.367L128.325 214.986L128.398 214.606C117.378 212.495 107.705 210.387 100.794 208.807L100.708 209.185ZM128.325 214.986L128.252 215.367C150.585 219.644 177.449 223.73 198.099 223.788L198.101 223.4L198.102 223.013C177.527 222.955 150.723 218.881 128.398 214.606L128.325 214.986ZM198.101 223.4L198.099 223.788C219.135 223.847 246.511 219.765 269.273 215.456L269.201 215.075L269.129 214.694C246.375 219.001 219.06 223.072 198.102 223.013L198.101 223.4ZM269.201 215.075L269.273 215.456C280.517 213.328 290.385 211.194 297.436 209.593L297.351 209.215L297.265 208.837C290.22 210.436 280.361 212.568 269.129 214.694L269.201 215.075ZM297.351 209.215L297.436 209.593C300.322 208.938 302.73 208.37 304.563 207.934L304.473 207.557L304.383 207.18C302.552 207.616 300.147 208.183 297.265 208.837L297.351 209.215ZM304.473 207.557L304.723 207.853L309.035 204.214L308.785 203.918L308.535 203.622L304.223 207.26L304.473 207.557ZM308.785 203.918L308.474 204.15L349.197 258.757L349.508 258.525L349.819 258.294L309.096 203.686L308.785 203.918ZM349.508 258.525L349.641 258.161L301.447 240.535L301.313 240.899L301.18 241.263L349.375 258.889L349.508 258.525ZM301.313 240.899L301.229 240.521C294.227 242.082 285.178 244.002 275.04 245.921L275.112 246.302L275.184 246.683C285.331 244.762 294.389 242.84 301.398 241.278L301.313 240.899ZM275.112 246.302L275.04 245.921C268.434 247.171 261.28 248.437 253.867 249.606L253.928 249.989L253.988 250.372C261.41 249.201 268.572 247.934 275.184 246.683L275.112 246.302ZM253.928 249.989L253.574 249.831L232.405 297.147L232.759 297.306L233.113 297.464L254.282 250.148L253.928 249.989ZM232.759 297.306L233.113 297.147L215.053 256.783L214.699 256.941L214.345 257.1L232.405 297.464L232.759 297.306ZM214.699 256.941L214.339 256.798L194.835 305.911L195.195 306.054L195.556 306.197L215.059 257.084L214.699 256.941ZM195.195 306.054L195.556 305.911L175.352 255.039L174.992 255.182L174.632 255.325L194.835 306.197L195.195 306.054ZM174.992 255.182L174.638 255.023L155.793 297.147L156.146 297.306L156.5 297.464L175.346 255.34L174.992 255.182ZM156.146 297.306L156.5 297.147L134.611 248.223L134.257 248.381L133.903 248.539L155.793 297.464L156.146 297.306ZM134.257 248.381L134.324 247.999C130.209 247.28 126.222 246.548 122.421 245.82L122.348 246.2L122.275 246.581C126.08 247.31 130.071 248.043 134.19 248.763L134.257 248.381ZM122.348 246.2L122.421 245.82C112.054 243.834 102.847 241.853 95.8656 240.277L95.7803 240.655L95.695 241.033C102.683 242.61 111.898 244.594 122.275 246.581L122.348 246.2ZM95.7803 240.655L95.6471 240.291L48.6139 257.494L48.7471 257.858L48.8802 258.222L95.9134 241.019L95.7803 240.655ZM48.7471 257.858L49.0578 258.09L89.7804 203.482L89.4697 203.25L89.159 203.018L48.4364 257.627L48.7471 257.858ZM89.4697 203.25L89.2198 203.546L94.6436 208.123L94.8936 207.827L95.1435 207.531L89.7197 202.954L89.4697 203.25Z" fill="black"/>
<path d="M99.9671 253.056L129.546 261.122L133.883 193.745L99.9671 253.056Z" fill="white" stroke="black" stroke-width="0.775157"/>
<path d="M295.913 252.459L261.97 261.715L259.757 193.546L295.913 252.459Z" fill="white" stroke="black" stroke-width="0.775157"/>
</svg>
