<svg width="400" height="400" viewBox="0 0 400 400" fill="none" xmlns="http://www.w3.org/2000/svg">
<mask id="path-1-inside-1_271_415" fill="white">
<path fill-rule="evenodd" clip-rule="evenodd" d="M185.281 23.4788C191.209 10.3612 209.837 10.3612 215.765 23.4788L329.729 275.687C336.446 285.734 340.362 297.811 340.362 310.803C340.362 345.746 312.036 374.073 277.093 374.074C265.364 374.074 254.38 370.882 244.963 365.32C233.379 378.235 216.563 386.362 197.849 386.362C179.909 386.362 163.712 378.895 152.198 366.9C143.441 371.481 133.478 374.074 122.91 374.074C87.9674 374.073 59.6408 345.746 59.6406 310.803C59.6407 296.113 64.6472 282.592 73.0469 271.854L185.281 23.4788Z"/>
</mask>
<path fill-rule="evenodd" clip-rule="evenodd" d="M185.281 23.4788C191.209 10.3612 209.837 10.3612 215.765 23.4788L329.729 275.687C336.446 285.734 340.362 297.811 340.362 310.803C340.362 345.746 312.036 374.073 277.093 374.074C265.364 374.074 254.38 370.882 244.963 365.32C233.379 378.235 216.563 386.362 197.849 386.362C179.909 386.362 163.712 378.895 152.198 366.9C143.441 371.481 133.478 374.074 122.91 374.074C87.9674 374.073 59.6408 345.746 59.6406 310.803C59.6407 296.113 64.6472 282.592 73.0469 271.854L185.281 23.4788Z" fill="#075444"/>
<path d="M185.281 23.4788L190.362 25.7746V25.7746L185.281 23.4788ZM215.765 23.4788L220.845 21.1831V21.1831L215.765 23.4788ZM329.729 275.687L324.649 277.983L324.839 278.402L325.095 278.785L329.729 275.687ZM340.362 310.803L345.937 310.803V310.803L340.362 310.803ZM277.093 374.074L277.093 379.649H277.093L277.093 374.074ZM244.963 365.32L247.798 360.519L243.864 358.195L240.813 361.597L244.963 365.32ZM197.849 386.362L197.849 391.937H197.849L197.849 386.362ZM152.198 366.9L156.22 363.039L153.322 360.02L149.614 361.96L152.198 366.9ZM122.91 374.074L122.91 379.649H122.91V374.074ZM59.6406 310.803L54.0655 310.803V310.803L59.6406 310.803ZM73.0469 271.854L77.4382 275.289L77.8513 274.761L78.1274 274.15L73.0469 271.854ZM185.281 23.4788L190.362 25.7746C194.313 17.0295 206.732 17.0295 210.684 25.7746L215.765 23.4788L220.845 21.1831C212.942 3.69296 188.104 3.69296 180.201 21.1831L185.281 23.4788ZM215.765 23.4788L210.684 25.7745L324.649 277.983L329.729 275.687L334.81 273.391L220.845 21.1831L215.765 23.4788ZM329.729 275.687L325.095 278.785C331.217 287.944 334.787 298.948 334.787 310.803L340.362 310.803L345.937 310.803C345.937 296.674 341.674 283.524 334.364 272.589L329.729 275.687ZM340.362 310.803L334.787 310.803C334.787 342.667 308.956 368.498 277.093 368.498L277.093 374.074L277.093 379.649C315.115 379.648 345.937 348.825 345.937 310.803L340.362 310.803ZM277.093 374.074L277.093 368.498C266.388 368.498 256.38 365.588 247.798 360.519L244.963 365.32L242.128 370.12C252.38 376.175 264.339 379.649 277.093 379.649L277.093 374.074ZM244.963 365.32L240.813 361.597C230.241 373.384 214.913 380.786 197.849 380.786L197.849 386.362L197.849 391.937C218.213 391.937 236.517 383.086 249.113 369.042L244.963 365.32ZM197.849 386.362L197.849 380.786C181.489 380.786 166.727 373.984 156.22 363.039L152.198 366.9L148.176 370.76C160.698 383.805 178.329 391.937 197.849 391.937L197.849 386.362ZM152.198 366.9L149.614 361.96C141.635 366.134 132.556 368.498 122.91 368.498V374.074V379.649C134.4 379.649 145.247 376.828 154.783 371.84L152.198 366.9ZM122.91 374.074L122.91 368.498C91.0466 368.498 65.2159 342.667 65.2158 310.803L59.6406 310.803L54.0655 310.803C54.0657 348.825 84.8883 379.648 122.91 379.649L122.91 374.074ZM59.6406 310.803L65.2158 310.803C65.2158 297.402 69.7783 285.081 77.4382 275.289L73.0469 271.854L68.6556 268.419C59.5162 280.103 54.0656 294.824 54.0655 310.803L59.6406 310.803ZM73.0469 271.854L78.1274 274.15L190.362 25.7746L185.281 23.4788L180.201 21.1831L67.9664 269.558L73.0469 271.854Z" fill="#FCDF0C" mask="url(#path-1-inside-1_271_415)"/>
<path d="M199.985 177.324L208.307 202.938H235.239L213.451 218.768L221.773 244.382L199.985 228.552L178.196 244.382L186.519 218.768L164.73 202.938H191.662L199.985 177.324Z" fill="#FF1E1E"/>
<path d="M209.765 100.214L218.747 150.281L171.486 133.712L209.765 100.214Z" fill="#FCDF0C"/>
<path d="M190.234 275.419L181.251 325.486L228.512 308.917L190.234 275.419Z" fill="#FCDF0C"/>
<circle cx="123.931" cy="316.321" r="31.337" fill="#A1FF14"/>
<circle cx="277.976" cy="316.321" r="31.337" fill="#A1FF14"/>
</svg>
