<svg width="400" height="400" viewBox="0 0 400 400" fill="none" xmlns="http://www.w3.org/2000/svg">
<path d="M196.265 21.5557C238.046 101.607 314.851 273.898 288.325 323.684C261.785 373.495 218.845 380.911 200.602 378.432C182.433 381.413 140.39 374.709 112.489 325.647C84.5881 276.586 156.709 102.087 196.258 20.9707L196.265 21.5557Z" fill="#22A04E"/>
<path d="M291.313 270.135C291.58 271.901 291.822 273.642 292.04 275.357L201.848 377.575L201.856 378.051C201.356 378.133 200.835 378.208 200.297 378.275L106.988 278.406C107.157 276.686 107.349 274.938 107.565 273.165L200.691 372.839L291.313 270.135ZM271.188 193.599C271.737 195.209 272.279 196.815 272.813 198.417L200.698 308.532L200.742 311.13L199.843 309.839L199.255 310.737L199.233 308.964L124.017 200.95C124.505 199.334 125.002 197.713 125.505 196.088L199.74 302.694L271.188 193.599ZM249.536 136.312L199.338 226.846L199.377 229.145L198.698 227.999L198.285 228.746L198.268 227.271L145.517 138.209C146.141 136.554 146.768 134.901 147.398 133.251L198.58 219.665L247.514 131.411C248.191 133.042 248.865 134.676 249.536 136.312ZM227.402 85.3574L198.12 153.679L198.152 155.566L197.716 154.623L197.418 155.318L197.401 153.944L166.225 86.5645C166.929 84.9009 167.633 83.2475 168.336 81.6045L197.575 144.799L225.149 80.459C225.899 82.0817 226.651 83.7143 227.402 85.3574Z" fill="#A1FF14"/>
<path d="M196.263 21.5557C196.907 22.7895 197.559 24.0454 198.219 25.3223L203.535 378.725C202.498 378.654 201.517 378.556 200.6 378.432C200.253 378.489 199.896 378.54 199.532 378.59L194.217 25.1797C194.906 23.7508 195.585 22.3469 196.256 20.9707L196.263 21.5557Z" fill="#A1FF14"/>
<circle cx="147.053" cy="364.772" r="12.2527" fill="#FF0B0B"/>
<circle cx="250.698" cy="364.772" r="12.2527" fill="#FF0B0B"/>
</svg>
