<svg width="400" height="400" viewBox="0 0 400 400" fill="none" xmlns="http://www.w3.org/2000/svg">
<path d="M164.084 127.496C176.751 189.73 229.254 204.051 253.923 203.432H254.786C253.405 208.313 247.924 219.797 237.051 226.693C223.46 235.311 217.365 256.553 217.365 257.591C211.661 284.803 272.513 360.481 306.977 396.421C254.494 391.357 208.379 309.142 191.883 268.667C180.949 303.483 165.699 307.799 151.692 308.374C137.684 308.95 117.359 288.233 116.208 266.653C115.057 245.073 130.293 252.85 146.738 257.591C163.184 262.331 169.108 235.272 169.108 231.061C166.907 191.614 152.069 199.799 144.924 208.823C134.54 223.227 110.906 244.7 99.4498 215.355C85.1291 178.674 98.502 166.895 103.47 163.599C125.83 155.643 136.134 173.492 146.738 177.415C157.343 181.339 152.465 172.643 151.692 171.555C105.98 115.93 96.8467 36.3933 97.9941 3.57812C114.746 18.9531 151.417 65.2616 164.084 127.496Z" fill="#2A2A2A"/>
</svg>
