<svg width="400" height="400" viewBox="0 0 400 400" fill="none" xmlns="http://www.w3.org/2000/svg">
<path d="M235.915 127.496C223.248 189.73 170.745 204.051 146.076 203.432H145.213C146.594 208.313 152.075 219.797 162.948 226.693C176.539 235.311 182.634 256.553 182.634 257.591C188.338 284.803 127.486 360.481 93.0225 396.421C145.505 391.357 191.62 309.142 208.116 268.667C219.05 303.483 234.3 307.799 248.307 308.374C262.315 308.95 282.64 288.233 283.791 266.653C284.942 245.073 269.706 252.85 253.261 257.591C236.815 262.331 230.891 235.272 230.891 231.061C233.092 191.614 247.93 199.799 255.075 208.823C265.459 223.227 289.093 244.7 300.549 215.355C314.87 178.674 301.497 166.895 296.529 163.599C274.169 155.643 263.865 173.492 253.261 177.415C242.656 181.339 247.534 172.643 248.307 171.555C294.019 115.93 303.152 36.3933 302.005 3.57812C285.253 18.9531 248.583 65.2616 235.915 127.496Z" fill="#2A2A2A"/>
</svg>
