<svg width="400" height="400" viewBox="0 0 400 400" fill="none" xmlns="http://www.w3.org/2000/svg">
<circle cx="199.736" cy="199.459" r="28.7349" fill="black"/>
<path d="M189.032 123.903C205.023 155.886 195.695 171.446 189.032 175.228L207.524 176.077C210.505 169.612 217.07 149.654 219.485 121.542C222.505 86.4025 215.016 62.7763 205.605 47.1623C196.193 31.5482 182.49 25.9325 168.498 34.5471C153.336 43.8815 169.042 83.9241 189.032 123.903Z" fill="black"/>
<path d="M246.054 138.435C234.746 172.358 217.148 176.764 209.762 174.727L222.238 188.404C228.917 185.94 247.671 176.47 269.258 158.3C296.241 135.588 307.651 113.586 312.037 95.89C316.423 78.1944 310.704 64.5335 294.719 60.731C277.398 56.6108 260.189 96.0312 246.054 138.435Z" fill="black"/>
<path d="M276.098 189.031C244.115 205.022 228.555 195.694 224.773 189.031L223.924 207.523C230.389 210.504 250.347 217.069 278.458 219.484C313.598 222.504 337.225 215.015 352.839 205.604C368.453 196.192 374.068 182.489 365.454 168.497C356.119 153.335 316.077 169.041 276.098 189.031Z" fill="black"/>
<path d="M261.565 246.054C227.642 234.746 223.236 217.148 225.273 209.762L211.596 222.238C214.06 228.917 223.53 247.671 241.7 269.258C264.412 296.241 286.414 307.651 304.11 312.037C321.806 316.423 335.467 310.704 339.269 294.719C343.389 277.398 303.969 260.189 261.565 246.054Z" fill="black"/>
<path d="M210.968 276.099C194.977 244.116 204.305 228.556 210.968 224.774L192.476 223.925C189.495 230.39 182.93 250.347 180.515 278.459C177.495 313.599 184.984 337.226 194.395 352.84C203.807 368.454 217.51 374.069 231.502 365.455C246.664 356.12 230.958 316.078 210.968 276.099Z" fill="black"/>
<path d="M153.947 261.567C165.255 227.644 182.853 223.238 190.239 225.275L177.763 211.598C171.084 214.062 152.33 223.532 130.743 241.702C103.76 264.414 92.35 286.416 87.9639 304.112C83.5778 321.808 89.297 335.468 105.282 339.271C122.603 343.391 139.812 303.971 153.947 261.567Z" fill="black"/>
<path d="M123.902 210.971C155.885 194.98 171.445 204.308 175.227 210.971L176.076 192.479C169.611 189.498 149.653 182.933 121.542 180.517C86.4015 177.498 62.7753 184.987 47.1613 194.398C31.5472 203.81 25.9316 217.513 34.5461 231.505C43.8805 246.667 83.9231 230.96 123.902 210.971Z" fill="black"/>
<path d="M138.435 153.948C172.358 165.256 176.764 182.854 174.727 190.24L188.404 177.764C185.94 171.085 176.47 152.331 158.3 130.744C135.588 103.761 113.586 92.351 95.89 87.9649C78.1944 83.5788 64.5335 89.298 60.731 105.283C56.6108 122.604 96.0312 139.813 138.435 153.948Z" fill="black"/>
</svg>
