<svg width="400" height="400" viewBox="0 0 400 400" fill="none" xmlns="http://www.w3.org/2000/svg">
<path d="M103.874 25.5059C109.033 33.1243 120.671 57.5796 125.951 94.4531C132.551 140.545 140.323 159.49 226.957 175.395C313.59 191.299 311.36 209.812 319.908 227.358C325.728 318.079 262.274 363.248 229.819 374.492C273.345 311.238 266.474 282.188 258.824 266.236C250.413 248.697 157.06 236.08 133.823 227.204C53.1306 199.674 80.2347 81.2681 103.874 25.5059ZM108.375 58.7812C85.8696 103.667 60.4427 199.139 138.776 221.939C161.341 229.271 251.83 240.112 260.097 254.34C267.617 267.28 285.964 308.906 244.253 359.707C275.604 350.848 318.736 296.687 312.471 223.354C304.071 209.12 312.613 194.179 228.607 180.729C144.601 167.278 129.564 151.919 122.852 114.636C117.483 84.81 113.423 64.9722 108.375 58.7812Z" fill="#254ADD"/>
<circle cx="3.35463" cy="3.35463" r="3.35463" transform="matrix(-1 0 0 1 107.479 84.3242)" fill="#25DD65"/>
<circle cx="3.35463" cy="3.35463" r="3.35463" transform="matrix(-1 0 0 1 120.693 95.668)" fill="#25DD65"/>
<path d="M95.6924 110.197L113.937 142.993L117.338 100.514" stroke="#FF1E1E" stroke-width="1.23835" stroke-linecap="round"/>
<path d="M104.127 89.748C103.852 127.351 121.087 202.223 192.233 200.886C206.71 200.886 332.966 208.904 284.005 295.121C276.645 308.082 270.231 332.512 256.881 349.823" stroke="#FF1E1E" stroke-width="1.23835" stroke-linecap="round"/>
<path d="M98.4756 151.115L130.326 173.291L132.181 138.309" stroke="#FF1E1E" stroke-width="1.23835" stroke-linecap="round"/>
<path d="M109.608 189.533L155.065 193.281L143.623 160.797" stroke="#FF1E1E" stroke-width="1.23835" stroke-linecap="round"/>
<path d="M151.354 214.522L191.863 200.779L168.671 179.227" stroke="#FF1E1E" stroke-width="1.23835" stroke-linecap="round"/>
<path d="M188.462 224.203L234.853 206.355L207.634 184.535" stroke="#FF1E1E" stroke-width="1.23835" stroke-linecap="round"/>
<path d="M227.729 230.45L265.343 217.736L243.5 189.221" stroke="#FF1E1E" stroke-width="1.23835" stroke-linecap="round"/>
<path d="M267.375 244.886L291.969 243.503L285.875 209.8" stroke="#FF1E1E" stroke-width="1.23835" stroke-linecap="round"/>
<path d="M271.138 264.414L291.325 278.072L305.462 260.041" stroke="#FF1E1E" stroke-width="1.23835" stroke-linecap="round"/>
<path d="M274.245 297.984L274.245 316.937L293.777 302.357" stroke="#FF1E1E" stroke-width="1.23835" stroke-linecap="round"/>
<circle cx="3.35463" cy="3.35463" r="3.35463" transform="matrix(-1 0 0 1 99.0645 106.24)" fill="#25DD65"/>
<circle cx="3.35463" cy="3.35463" r="3.35463" transform="matrix(-1 0 0 1 100.803 146.514)" fill="#25DD65"/>
<circle cx="3.35463" cy="3.35463" r="3.35463" transform="matrix(-1 0 0 1 110.816 186.555)" fill="#25DD65"/>
<circle cx="3.35463" cy="3.35463" r="3.35463" transform="matrix(-1 0 0 1 288.3 206.48)" fill="#25DD65"/>
<circle cx="3.35463" cy="3.35463" r="3.35463" transform="matrix(-1 0 0 1 274.492 260.059)" fill="#25DD65"/>
<circle cx="2.73536" cy="2.73536" r="2.73536" transform="matrix(-1 0 0 1 277.854 294.631)" fill="#25DD65"/>
<circle cx="2.73536" cy="2.73536" r="2.73536" transform="matrix(-1 0 0 1 296.009 300.809)" fill="#25DD65"/>
<circle cx="3.35463" cy="3.35463" r="3.35463" transform="matrix(-1 0 0 1 308.8 258.184)" fill="#25DD65"/>
<circle cx="3.35463" cy="3.35463" r="3.35463" transform="matrix(-1 0 0 1 232.793 227.096)" fill="#25DD65"/>
<circle cx="3.35463" cy="3.35463" r="3.35463" transform="matrix(-1 0 0 1 271.138 241.9)" fill="#25DD65"/>
<circle cx="3.35463" cy="3.35463" r="3.35463" transform="matrix(-1 0 0 1 244.908 185.287)" fill="#25DD65"/>
<circle cx="3.35463" cy="3.35463" r="3.35463" transform="matrix(-1 0 0 1 191.815 220.85)" fill="#25DD65"/>
<circle cx="3.35463" cy="3.35463" r="3.35463" transform="matrix(-1 0 0 1 211.048 181.182)" fill="#25DD65"/>
<circle cx="3.35463" cy="3.35463" r="3.35463" transform="matrix(-1 0 0 1 135.69 134.953)" fill="#25DD65"/>
<circle cx="3.35463" cy="3.35463" r="3.35463" transform="matrix(-1 0 0 1 147.902 157.441)" fill="#25DD65"/>
<circle cx="3.35463" cy="3.35463" r="3.35463" transform="matrix(-1 0 0 1 173.07 175.871)" fill="#25DD65"/>
<circle cx="3.35463" cy="3.35463" r="3.35463" transform="matrix(-1 0 0 1 155.082 211.348)" fill="#25DD65"/>
</svg>
